<svg width="18" height="16" viewBox="0 0 18 16" fill="none" xmlns="http://www.w3.org/2000/svg">
<g clip-path="url(#clip0)">
<path d="M1.53955 7.05391C1.6082 7.08174 1.68028 7.09565 1.75236 7.09565C1.83474 7.09565 1.91712 7.07826 1.9892 7.04348L4.8519 5.72522C4.9892 5.65913 5.09218 5.54087 5.14366 5.39478C5.19515 5.2487 5.18485 5.0887 5.11964 4.94956C4.98577 4.66435 4.65968 4.54261 4.37479 4.6713L2.8233 5.38783C3.88051 2.81391 6.34504 1.16174 9.13909 1.16174C12.2558 1.16174 14.9846 3.27304 15.7672 6.29217C15.805 6.44174 15.9011 6.56696 16.0315 6.64348C16.1654 6.72 16.3164 6.74435 16.464 6.70261C16.6116 6.66435 16.7352 6.56696 16.8107 6.43478C16.8862 6.29913 16.9103 6.14609 16.8691 5.99652C15.956 2.46609 12.7775 0 9.14252 0C7.44344 0 5.8233 0.521739 4.4606 1.50609C3.25236 2.37913 2.31872 3.57565 1.75236 4.96348L1.11048 3.33913C1.01094 3.04 0.688288 2.87652 0.389661 2.97391C0.245496 3.02261 0.128791 3.12348 0.0567089 3.26261C-0.0119409 3.39826 -0.0256709 3.55478 0.0189515 3.69739C0.0258165 3.72522 0.036114 3.74957 0.0464115 3.77043L1.21003 6.73043C1.27524 6.88 1.39195 6.99826 1.53955 7.05391Z" fill="#6B6B6B"/>
<path d="M17.9726 12.2816V12.2746L16.7884 9.26942C16.73 9.11985 16.6133 9.00159 16.4692 8.94594C16.3284 8.88681 16.1637 8.89377 16.0195 8.95638L13.1637 10.2712C13.0229 10.3303 12.9165 10.4416 12.8582 10.5842C12.7998 10.7268 12.7998 10.8833 12.8582 11.0294C12.9165 11.172 13.0264 11.2833 13.1705 11.3425C13.3113 11.4016 13.4657 11.4016 13.6099 11.3425L15.1854 10.6155C14.1213 13.1859 11.6568 14.8416 8.86619 14.8416C5.74262 14.8416 3.01721 12.7303 2.23117 9.70768C2.19342 9.55811 2.09731 9.4329 1.96687 9.35638C1.833 9.27985 1.68197 9.25551 1.53438 9.29724C1.38678 9.33551 1.26321 9.4329 1.18769 9.56507C1.11218 9.70072 1.08815 9.85377 1.12934 10.0033C2.03895 13.5338 5.22088 15.9999 8.86276 15.9999C10.5618 15.9999 12.1785 15.4781 13.5412 14.4938C14.7495 13.6207 15.6831 12.4242 16.2495 11.0329L16.8914 12.6642C16.9429 12.8068 17.0493 12.9251 17.1866 12.9877C17.3239 13.0538 17.4818 13.0607 17.6259 13.0085C17.9142 12.9007 18.0687 12.5738 17.9726 12.2816Z" fill="#6B6B6B"/>
</g>
<defs>
<clipPath id="clip0">
<rect width="18" height="16" fill="white"/>
</clipPath>
</defs>
</svg>
