<svg width="28" height="21" viewBox="0 0 28 21" fill="none" xmlns="http://www.w3.org/2000/svg">
<path d="M0.323077 11.55C0.107692 11.34 0 11.025 0 10.815C0 10.605 0.107692 10.29 0.323077 10.08L1.83077 8.61C2.26154 8.19 2.90769 8.19 3.33846 8.61L3.44615 8.715L9.36923 14.91C9.58462 15.12 9.90769 15.12 10.1231 14.91L24.5538 0.315H24.6615C25.0923 -0.105 25.7385 -0.105 26.1692 0.315L27.6769 1.785C28.1077 2.205 28.1077 2.835 27.6769 3.255L10.4462 20.685C10.2308 20.895 10.0154 21 9.69231 21C9.36923 21 9.15385 20.895 8.93846 20.685L0.538462 11.865L0.323077 11.55Z" fill="white"/>
</svg>
