<svg width="16" height="14" viewBox="0 0 16 14" fill="none" xmlns="http://www.w3.org/2000/svg">
<path d="M0.184615 7.61542C0.0615385 7.49235 0 7.30773 0 7.18465C0 7.06158 0.0615385 6.87696 0.184615 6.75388L1.04615 5.89235C1.29231 5.64619 1.66154 5.64619 1.90769 5.89235L1.96923 5.95388L5.35385 9.58465C5.47692 9.70773 5.66154 9.70773 5.78462 9.58465L14.0308 1.03081H14.0923C14.3385 0.784653 14.7077 0.784653 14.9538 1.03081L15.8154 1.89235C16.0615 2.1385 16.0615 2.50773 15.8154 2.75388L5.96923 12.9693C5.84615 13.0923 5.72308 13.1539 5.53846 13.1539C5.35385 13.1539 5.23077 13.0923 5.10769 12.9693L0.307692 7.80004L0.184615 7.61542Z" fill="white"/>
</svg>
