<svg width="30" height="31" viewBox="0 0 30 31" fill="none" xmlns="http://www.w3.org/2000/svg">
<path d="M26.5012 30.6487H7.47358C6.08888 30.6487 4.9668 29.5242 4.9668 28.1365V21.8082C4.9668 21.545 5.18166 21.3296 5.44428 21.3296H21.5115C21.8458 21.3296 22.1323 21.0545 22.1323 20.7076V12.7882C22.1323 12.4533 21.8577 12.1662 21.5115 12.1662H5.45622C5.1936 12.1662 4.97873 11.9508 4.97873 11.6876V2.51219C4.97873 1.1245 6.10082 0 7.48551 0H21.2012C21.4638 0 21.6787 0.21533 21.6787 0.478511V6.57953C21.6787 6.99823 22.0248 7.34515 22.4426 7.34515H28.5305C28.7931 7.34515 29.008 7.56048 29.008 7.82367V28.1125C28.9961 29.5242 27.874 30.6487 26.5012 30.6487ZM5.9337 22.2867V28.1365C5.9337 28.9978 6.62605 29.6916 7.48551 29.6916H26.5012C27.3607 29.6916 28.0531 28.9978 28.0531 28.1365V8.3261H22.4426C21.4996 8.3261 20.7237 7.56048 20.7237 6.60346V0.98095H7.47358C6.61411 0.98095 5.92176 1.67479 5.92176 2.53611V11.2331H21.5115C22.383 11.2331 23.0872 11.9389 23.0872 12.8121V20.7315C23.0872 21.6048 22.383 22.3106 21.5115 22.3106H5.9337V22.2867Z" fill="#008654"/>
<path d="M21.5225 22.2865H1.57569C0.704286 22.2865 0 21.5807 0 20.7074V12.7881C0 11.9148 0.704286 11.209 1.57569 11.209H21.5225C22.3939 11.209 23.0982 11.9148 23.0982 12.7881V20.7074C23.0863 21.5807 22.382 22.2865 21.5225 22.2865ZM1.57569 12.178C1.24145 12.178 0.954964 12.4531 0.954964 12.8V20.7194C0.954964 21.0663 1.22952 21.3415 1.57569 21.3415H21.5225C21.8567 21.3415 22.1432 21.0663 22.1432 20.7194V12.8C22.1432 12.4651 21.8687 12.178 21.5225 12.178H1.57569Z" fill="#008654"/>
<path d="M28.5297 8.32659H22.4299C21.4868 8.32659 20.7109 7.56097 20.7109 6.60395V0.502926C20.7109 0.311522 20.8303 0.132078 21.0094 0.0603017C21.1884 -0.0114751 21.3913 0.0244162 21.5346 0.16797L28.8401 7.48919C28.9475 7.57293 29.0072 7.70453 29.0072 7.86004C29.0072 8.11126 28.7923 8.32659 28.5297 8.32659ZM21.6778 1.65135V6.60395C21.6778 7.02265 22.024 7.36956 22.4418 7.36956H27.3837L21.6778 1.65135Z" fill="#008654"/>
<path d="M3.41457 19.822C3.04452 19.822 2.74609 19.5349 2.74609 19.1999C2.74609 18.865 3.04452 18.5898 3.41457 18.5898C3.77268 18.5898 4.07111 18.865 4.07111 19.1999C4.07111 19.5349 3.77268 19.822 3.41457 19.822Z" fill="#008654"/>
<path d="M8.24944 17.3459L9.33571 18.9848C9.59833 19.3796 9.2044 19.8103 8.84629 19.8103C8.64336 19.8103 8.47624 19.7265 8.38075 19.559L7.0438 17.4656H6.50663V19.2959C6.50663 19.571 6.24402 19.8222 5.94559 19.8222C5.64716 19.8222 5.39648 19.583 5.39648 19.2959V14.7021C5.39648 14.3911 5.67104 14.1279 6.00527 14.1279H7.38997C8.8821 14.1279 9.35959 14.9773 9.35959 15.8147C9.34765 16.6042 8.92985 17.1306 8.24944 17.3459ZM7.34222 15.1448H6.49469V16.4726H7.38997C7.93908 16.4726 8.2375 16.2453 8.2375 15.8266C8.2375 15.4797 8.07038 15.1448 7.34222 15.1448Z" fill="#008654"/>
<path d="M11.5318 19.4511C11.4482 19.6784 11.1976 19.822 11.0066 19.822C10.6962 19.822 10.4336 19.6186 10.4336 19.3076C10.4336 19.2717 10.4455 19.176 10.4575 19.1281L12.0093 14.5823C12.1167 14.2712 12.2719 14.0439 12.6539 14.0439C13.0359 14.0439 13.1911 14.2712 13.3104 14.5823L14.8622 19.1281C14.8742 19.164 14.8861 19.2597 14.8861 19.3076C14.8861 19.6067 14.6354 19.822 14.3131 19.822C14.1102 19.822 13.8476 19.6665 13.776 19.4511L13.5014 18.6496H11.7944L11.5318 19.4511ZM12.7971 16.3647C12.7255 16.1374 12.6897 15.8264 12.6539 15.5871C12.6181 15.8384 12.5823 16.1374 12.5106 16.3647L12.0928 17.7285H13.203L12.7971 16.3647Z" fill="#008654"/>
<path d="M18.7905 17.3459L19.8767 18.9848C20.1393 19.3796 19.7454 19.8103 19.3873 19.8103C19.1844 19.8103 19.0173 19.7265 18.9218 19.559L17.5848 17.4656H17.0476V19.2959C17.0476 19.571 16.785 19.8222 16.4866 19.8222C16.1882 19.8222 15.9375 19.583 15.9375 19.2959V14.7021C15.9375 14.3911 16.2121 14.1279 16.5463 14.1279H17.931C19.4231 14.1279 19.9006 14.9773 19.9006 15.8147C19.9006 16.6042 19.4828 17.1306 18.7905 17.3459ZM17.8952 15.1448H17.0476V16.4726H17.9429C18.492 16.4726 18.7905 16.2453 18.7905 15.8266C18.7905 15.4797 18.6233 15.1448 17.8952 15.1448Z" fill="#008654"/>
</svg>
