<svg width="11" height="21" viewBox="0 0 11 21" fill="none" xmlns="http://www.w3.org/2000/svg">
<path d="M10.5858 0.00423334L7.94737 0C4.98322 0 3.06766 1.96533 3.06766 5.00719V7.31584H0.414863C0.18563 7.31584 0 7.50169 0 7.73092V11.0759C0 11.3051 0.185842 11.4908 0.414863 11.4908H3.06766V19.9312C3.06766 20.1604 3.25329 20.3461 3.48252 20.3461H6.94366C7.17289 20.3461 7.35852 20.1602 7.35852 19.9312V11.4908H10.4603C10.6895 11.4908 10.8751 11.3051 10.8751 11.0759L10.8764 7.73092C10.8764 7.62085 10.8326 7.51544 10.7549 7.43755C10.6772 7.35966 10.5714 7.31584 10.4613 7.31584H7.35852V5.35877C7.35852 4.41812 7.58267 3.9406 8.808 3.9406L10.5853 3.93997C10.8144 3.93997 11 3.75412 11 3.5251V0.4191C11 0.190289 10.8146 0.00465667 10.5858 0.00423334Z" fill="white"/>
</svg>
