<svg width="46" height="46" viewBox="0 0 46 46" fill="none" xmlns="http://www.w3.org/2000/svg">
<path d="M11.5 0C9.91875 0 8.625 1.29375 8.625 2.875V43.125C8.625 44.7063 9.91875 46 11.5 46H40.25C41.8313 46 43.125 44.7063 43.125 43.125V11.5L31.625 0H11.5Z" fill="#E2E5E7"/>
<path d="M34.5 11.5H43.125L31.625 0V8.625C31.625 10.2063 32.9187 11.5 34.5 11.5Z" fill="#B0B7BD"/>
<path d="M43.125 20.125L34.5 11.5H43.125V20.125Z" fill="#CAD1D8"/>
<path d="M37.375 37.375C37.375 38.1656 36.7281 38.8125 35.9375 38.8125H4.3125C3.52187 38.8125 2.875 38.1656 2.875 37.375V23C2.875 22.2094 3.52187 21.5625 4.3125 21.5625H35.9375C36.7281 21.5625 37.375 22.2094 37.375 23V37.375Z" fill="#50BEE8"/>
<path d="M8.31694 34.5001C7.93744 34.5001 7.52344 34.2916 7.52344 33.7871V27.2594C7.52344 26.8454 7.93744 26.5464 8.31694 26.5464H10.949C16.2016 26.5464 16.0852 34.5001 11.0511 34.5001H8.31694V34.5001ZM9.04144 27.948V33.0971H10.949C14.0526 33.0971 14.1891 27.948 10.949 27.948H9.04144Z" fill="white"/>
<path d="M20.4845 34.615C18.3584 34.707 16.1504 33.2925 16.1504 30.4764C16.1504 27.6489 18.357 26.2588 20.4845 26.2588C22.4955 26.3609 24.5986 27.7524 24.5986 30.4764C24.5986 33.2019 22.4955 34.615 20.4845 34.615ZM20.358 27.7538C19.07 27.7538 17.6684 28.6623 17.6684 30.4779C17.6684 32.2834 19.0714 33.2034 20.358 33.2034C21.6805 33.2034 23.0935 32.2834 23.0935 30.4779C23.0935 28.6609 21.6805 27.7538 20.358 27.7538Z" fill="white"/>
<path d="M25.9512 30.465C25.9512 28.2469 27.3427 26.3394 29.9862 26.3394C30.9867 26.3394 31.7802 26.6384 32.6183 27.3629C32.9288 27.6489 32.9633 28.1549 32.6528 28.4769C32.3423 28.7515 31.8708 28.7184 31.5948 28.4424C31.1247 27.9479 30.6417 27.8114 29.9862 27.8114C28.2167 27.8114 27.3671 29.0649 27.3671 30.4664C27.3671 31.8924 28.2052 33.202 29.9862 33.202C30.6417 33.202 31.2512 32.936 31.7802 32.466C32.1353 32.19 32.6298 32.3265 32.8368 32.604C33.0208 32.857 33.1114 33.2825 32.7103 33.6835C31.9053 34.4325 30.9407 34.582 29.9848 34.582C27.2047 34.582 25.9512 32.683 25.9512 30.465Z" fill="white"/>
<path d="M35.9375 38.8125H8.625V40.25H35.9375C36.7281 40.25 37.375 39.6031 37.375 38.8125V37.375C37.375 38.1656 36.7281 38.8125 35.9375 38.8125Z" fill="#CAD1D8"/>
</svg>
