<svg width="30" height="31" viewBox="0 0 30 31" fill="none" xmlns="http://www.w3.org/2000/svg">
<path d="M26.501 30.6487H7.4853C6.1006 30.6487 4.97852 29.5242 4.97852 28.1365V21.8082C4.97852 21.545 5.19338 21.3297 5.456 21.3297H21.5233C21.8575 21.3297 22.144 21.0545 22.144 20.7076V12.7882C22.144 12.4533 21.8695 12.1662 21.5233 12.1662H5.456C5.19338 12.1662 4.97852 11.9508 4.97852 11.6876V2.51219C4.97852 1.1245 6.1006 0 7.4853 0H21.201C21.4636 0 21.6785 0.21533 21.6785 0.478512V6.57953C21.6785 6.99823 22.0246 7.34515 22.4424 7.34515H28.5303C28.7929 7.34515 29.0078 7.56048 29.0078 7.82366V28.1125C29.0078 29.5242 27.8738 30.6487 26.501 30.6487ZM5.93348 22.2986V28.1484C5.93348 29.0098 6.62583 29.7036 7.4853 29.7036H26.501C27.3605 29.7036 28.0528 29.0098 28.0528 28.1484V8.3261H22.4424C21.4994 8.3261 20.7235 7.56048 20.7235 6.60346V0.980946H7.4853C6.62583 0.980946 5.93348 1.67479 5.93348 2.53611V11.2331H21.5233C22.3947 11.2331 23.099 11.9389 23.099 12.8121V20.7315C23.099 21.6048 22.3947 22.3106 21.5233 22.3106H5.93348V22.2986Z" fill="#008654"/>
<path d="M21.5225 22.2982H1.57569C0.70428 22.2982 0 21.5924 0 20.7191V12.7998C0 11.9265 0.70428 11.2207 1.57569 11.2207H21.5225C22.3939 11.2207 23.0982 11.9265 23.0982 12.7998V20.7191C23.0982 21.5924 22.382 22.2982 21.5225 22.2982ZM1.57569 12.1897C1.24145 12.1897 0.954965 12.4648 0.954965 12.8118V20.7311C0.954965 21.078 1.22951 21.3532 1.57569 21.3532H21.5225C21.8568 21.3532 22.1432 21.078 22.1432 20.7311V12.8118C22.1432 12.4768 21.8687 12.1897 21.5225 12.1897H1.57569Z" fill="#008654"/>
<path d="M28.5297 8.32658H22.4299C21.4868 8.32658 20.7109 7.56096 20.7109 6.60394V0.502923C20.7109 0.311519 20.8303 0.132079 21.0094 0.0603026C21.1884 -0.0114741 21.3914 0.0244135 21.5346 0.167967L28.8401 7.48919C28.9475 7.57293 29.0072 7.70452 29.0072 7.86003C29.0072 8.11125 28.7923 8.32658 28.5297 8.32658ZM21.6778 1.66331V6.6159C21.6778 7.0346 22.024 7.38152 22.4418 7.38152H27.3837L21.6778 1.66331Z" fill="#008654"/>
<path d="M4.01027 19.8347C3.64022 19.8347 3.3418 19.5476 3.3418 19.2126C3.3418 18.8777 3.64022 18.6025 4.01027 18.6025C4.36838 18.6025 4.6668 18.8777 4.6668 19.2126C4.6668 19.5476 4.36838 19.8347 4.01027 19.8347Z" fill="#008654"/>
<path d="M8.36705 17.8837C8.36705 19.092 7.93731 19.8337 6.5168 19.8337C6.21838 19.8337 5.59766 19.7978 5.59766 19.2834C5.59766 18.9604 5.89607 18.781 6.11094 18.781C6.29 18.781 6.39744 18.8288 6.60037 18.8288C7.13754 18.8288 7.24496 18.4699 7.24496 17.8837V14.5701C7.24496 14.2949 7.48371 14.0557 7.80601 14.0557C8.10444 14.0557 8.36705 14.2949 8.36705 14.5701V17.8837Z" fill="#008654"/>
<path d="M10.874 17.8481V19.3076C10.874 19.5827 10.6234 19.8339 10.313 19.8339C10.0146 19.8339 9.75195 19.5947 9.75195 19.3076V14.7139C9.75195 14.4028 10.0385 14.1396 10.3727 14.1396H11.5425C13.0346 14.1396 13.5718 15.0369 13.5718 16.0058C13.5718 17.1902 12.772 17.8481 11.5425 17.8481H10.874V17.8481ZM10.874 16.8313H11.5545C12.1513 16.8313 12.4736 16.5681 12.4736 15.9939C12.4736 15.5752 12.3065 15.1445 11.5545 15.1445H10.874V16.8313Z" fill="#008654"/>
<path d="M15.7078 17.7285C15.7078 18.4104 15.9465 18.841 16.6628 18.841C16.9373 18.841 17.1403 18.7692 17.3193 18.6735V17.4294H16.9015C16.6389 17.4294 16.4002 17.2021 16.4002 16.927C16.4002 16.6518 16.6389 16.4245 16.9015 16.4245H17.7729C18.143 16.4245 18.4295 16.604 18.4295 16.9868V18.7453C18.4295 19.499 17.4387 19.81 16.627 19.81C15.2303 19.81 14.5977 18.9846 14.5977 17.7165V16.1374C14.5977 14.8813 15.2303 14.0439 16.627 14.0439C17.4745 14.0439 18.2743 14.4387 18.2743 14.8933C18.2743 15.1445 18.0475 15.3718 17.749 15.3718C17.57 15.3718 17.5103 15.312 17.4029 15.2522L17.3193 15.2043C17.1164 15.0847 16.9134 15.0129 16.6628 15.0129C15.9465 15.0129 15.7078 15.4436 15.7078 16.1255V17.7285V17.7285Z" fill="#008654"/>
</svg>
