<svg width="93" height="85" viewBox="0 0 93 85" fill="none" xmlns="http://www.w3.org/2000/svg">
<path d="M4.35724 80.4494H4.30138L1.28483 74.4943H0V82.2471H0.558621V75.955H0.670345L3.85448 82.2471H4.13379L7.26207 75.8988H7.31793V82.2471H8.60276V74.4943H7.31793L4.35724 80.4494ZM10.3345 76.4606V82.1909H11.5076V76.1235H11.1724L10.3345 76.4606ZM11.3959 73.3707C11.34 73.3145 11.2841 73.2584 11.1724 73.2584C11.1166 73.2022 11.0048 73.2022 10.8931 73.2022C10.7814 73.2022 10.7255 73.2022 10.6138 73.2584C10.5579 73.3145 10.4462 73.3145 10.3903 73.3707C10.3345 73.4269 10.2786 73.4831 10.2228 73.5393C10.1669 73.5954 10.1669 73.7078 10.1669 73.764C10.1669 73.8202 10.1669 73.9325 10.2228 73.9887C10.2786 74.0449 10.3345 74.1011 10.3903 74.1572C10.4462 74.2134 10.5021 74.2696 10.6138 74.2696C10.6697 74.3258 10.7814 74.3258 10.8931 74.3258C11.0048 74.3258 11.0607 74.3258 11.1724 74.2696C11.2283 74.2134 11.34 74.2134 11.3959 74.1572C11.4517 74.1011 11.5076 74.0449 11.5634 73.9887C11.6193 73.9325 11.6193 73.8202 11.6193 73.764C11.6193 73.7078 11.6193 73.5954 11.5634 73.5393C11.5076 73.4831 11.4517 73.4269 11.3959 73.3707ZM17.4848 76.6853C17.3731 76.5168 17.2055 76.4044 17.0379 76.2921C16.8703 76.1797 16.6469 76.1235 16.4793 76.1235C16.0883 76.1235 15.6972 76.2359 15.3062 76.4044C14.9152 76.6291 14.5241 76.91 14.189 77.3033V76.2359H13.0159V82.1909H14.189V77.7527C14.3007 77.6404 14.4683 77.528 14.58 77.4157C14.7476 77.3033 14.8593 77.2471 15.0269 77.1348C15.1945 77.0786 15.3062 77.0224 15.4738 76.9662C15.6414 76.91 15.7531 76.91 15.8648 76.91C16.1441 76.91 16.3676 77.0224 16.5352 77.1909C16.7028 77.4157 16.8145 77.6966 16.8145 78.0898V82.1909H17.9876V77.9213C17.9876 77.6966 17.9317 77.4157 17.8759 77.1909C17.7083 77.0224 17.5966 76.7977 17.4848 76.6853ZM20.3897 73.3707C20.3338 73.3145 20.2779 73.2584 20.1662 73.2584C20.1103 73.2022 19.9986 73.2022 19.8869 73.2022C19.7752 73.2022 19.7193 73.2022 19.6076 73.2584C19.5517 73.3145 19.44 73.3145 19.3841 73.3707C19.3283 73.4269 19.2724 73.4831 19.2166 73.5393C19.1607 73.5954 19.1607 73.7078 19.1607 73.764C19.1607 73.8202 19.1607 73.9325 19.2166 73.9887C19.2724 74.0449 19.3283 74.1011 19.3841 74.1572C19.44 74.2134 19.4959 74.2696 19.6076 74.2696C19.6634 74.3258 19.7752 74.3258 19.8869 74.3258C19.9986 74.3258 20.0545 74.3258 20.1662 74.2696C20.2221 74.2134 20.3338 74.2134 20.3897 74.1572C20.4455 74.1011 20.5014 74.0449 20.5572 73.9887C20.6131 73.9325 20.6131 73.8202 20.6131 73.764C20.6131 73.7078 20.6131 73.5954 20.5572 73.5393C20.5014 73.4831 20.4455 73.4269 20.3897 73.3707ZM19.3283 76.4606V82.1909H20.5014V76.1235H20.1662L19.3283 76.4606ZM25.529 79.382C25.3614 79.2134 25.1938 79.1011 24.9703 78.9887C24.7469 78.8763 24.5793 78.764 24.3559 78.7078C24.1324 78.5954 23.909 78.5393 23.7414 78.4269C23.5179 78.3145 23.3503 78.2584 23.1828 78.146C23.0152 78.0336 22.9034 77.9213 22.7917 77.8089C22.68 77.6966 22.6241 77.528 22.6241 77.3595C22.6241 77.2471 22.6241 77.1348 22.68 77.0786C22.7359 76.9662 22.7917 76.91 22.9034 76.7977C23.0152 76.7415 23.1269 76.6853 23.2386 76.6291C23.4062 76.573 23.5179 76.573 23.6855 76.573C24.0207 76.573 24.3 76.6853 24.5793 76.8539C24.8586 77.0224 25.0821 77.3033 25.3055 77.6966L25.7524 77.3033C25.5848 77.0786 25.4172 76.8539 25.2497 76.7415C25.0821 76.573 24.9145 76.4606 24.7469 76.4044C24.5793 76.3482 24.4117 76.2921 24.2441 76.2359C24.0766 76.1797 23.909 76.1797 23.6855 76.1797C23.4062 76.1797 23.1269 76.2359 22.8476 76.2921C22.6241 76.4044 22.4007 76.5168 22.2331 76.6291C22.0655 76.7977 21.8979 76.9662 21.7862 77.1348C21.6745 77.3595 21.6186 77.5842 21.6186 77.8089C21.6186 78.0898 21.6745 78.2584 21.7303 78.4831C21.8421 78.6516 21.9538 78.8202 22.0655 78.9887C22.2331 79.1572 22.4007 79.2696 22.5683 79.382C22.7359 79.4943 22.9593 79.6067 23.1269 79.6629C23.3503 79.7752 23.5179 79.8314 23.6855 79.9438C23.8531 80.0561 24.0207 80.1123 24.1883 80.2247C24.3559 80.337 24.4676 80.4494 24.5234 80.6179C24.6352 80.7303 24.6352 80.8988 24.6352 81.0673C24.6352 81.1797 24.6352 81.2921 24.5793 81.4044C24.5234 81.5168 24.4676 81.6291 24.3559 81.6853C24.2441 81.7415 24.1324 81.8539 24.0207 81.8539C23.909 81.91 23.7414 81.91 23.5738 81.91C23.4062 81.91 23.2386 81.91 23.1269 81.8539C22.9593 81.7977 22.8476 81.7415 22.68 81.6291C22.5683 81.5168 22.4007 81.4044 22.289 81.2921C22.1772 81.1235 22.0097 80.955 21.8979 80.7864L21.3952 81.2359C21.5628 81.4606 21.7303 81.6853 21.9538 81.7977C22.1214 81.9662 22.3448 82.0786 22.5124 82.1348C22.68 82.1909 22.9034 82.2471 23.071 82.3033C23.2386 82.3595 23.4062 82.3595 23.6297 82.3595C24.0207 82.3595 24.3559 82.3033 24.6352 82.1909C24.9145 82.0786 25.1379 81.9662 25.3614 81.7977C25.529 81.6291 25.6966 81.4606 25.8083 81.2359C25.92 81.0112 25.9759 80.7864 25.9759 80.5055C25.9759 80.2808 25.92 80.0561 25.8083 79.8314C25.8641 79.719 25.6966 79.5505 25.529 79.382ZM29.8862 81.5168C29.7745 81.573 29.6628 81.6291 29.551 81.6291C29.4393 81.6291 29.3834 81.6291 29.3276 81.573C29.2717 81.5168 29.16 81.5168 29.1041 81.4606C29.0483 81.4044 28.9924 81.3482 28.9924 81.2359C28.9366 81.1797 28.9366 81.0673 28.9366 81.0112V76.7977H30.1655V76.2921H28.8248V74.2696H28.4897C28.4338 74.5505 28.3779 74.8876 28.2662 75.1123C28.2103 75.3932 28.0986 75.6179 27.931 75.8426C27.8193 76.0673 27.5959 76.2359 27.4283 76.3482C27.2048 76.4606 26.9255 76.5168 26.5903 76.5168V76.7977H27.5959V81.0112C27.5959 81.2359 27.5959 81.4044 27.6517 81.573C27.7076 81.7415 27.7634 81.91 27.8752 82.0224C27.9869 82.1348 28.0986 82.2471 28.2103 82.3033C28.3779 82.3595 28.5455 82.4157 28.7131 82.4157C29.1041 82.4157 29.4393 82.3595 29.6628 82.1909C29.9421 82.0224 30.1097 81.7977 30.2772 81.5168L29.9979 81.2921C30.0538 81.3482 29.9979 81.4606 29.8862 81.5168ZM34.6903 76.3482C34.6345 76.2921 34.5228 76.2359 34.411 76.1797C34.2993 76.1235 34.1876 76.1235 34.0759 76.1235C33.9083 76.1235 33.7407 76.1797 33.629 76.2359C33.4614 76.2921 33.3497 76.4044 33.1821 76.5168C33.0145 76.6291 32.9028 76.7415 32.791 76.91C32.6793 77.0786 32.5117 77.2471 32.4 77.3595V76.2359H31.2269V82.1909H32.4V78.0898C32.4559 77.9775 32.5676 77.8089 32.6234 77.6966C32.6793 77.5842 32.791 77.4718 32.8469 77.4157C32.9028 77.3595 33.0145 77.2471 33.0703 77.2471C33.1262 77.1909 33.2379 77.1909 33.2938 77.1909C33.4055 77.1909 33.4614 77.1909 33.5172 77.2471C33.5731 77.2471 33.629 77.3033 33.7407 77.3595C33.7966 77.4157 33.8524 77.4157 33.9641 77.4718C34.02 77.4718 34.1317 77.528 34.2993 77.528C34.5228 77.528 34.6903 77.4718 34.8021 77.3595C34.9138 77.2471 34.9697 77.1348 34.9697 76.91C34.9697 76.7977 34.9697 76.7415 34.9138 76.6291C34.8021 76.4606 34.7462 76.4044 34.6903 76.3482ZM38.7124 80.5617L36.4221 76.2359H35.0814L38.0979 81.91L37.7069 82.8089C37.651 82.9213 37.5952 83.0336 37.5393 83.146C37.4834 83.2584 37.4276 83.3707 37.3159 83.4831C37.26 83.5954 37.1483 83.6516 37.0366 83.764C36.9248 83.8202 36.8131 83.8763 36.7014 83.8763C36.5897 83.8763 36.4779 83.8763 36.4221 83.8202C36.3662 83.8202 36.3103 83.764 36.2545 83.7078C36.1986 83.6516 36.1428 83.6516 36.031 83.5954C35.9752 83.5954 35.8634 83.5393 35.7517 83.5393C35.64 83.5393 35.5283 83.5393 35.4724 83.5954C35.3607 83.6516 35.3048 83.7078 35.249 83.764C35.1931 83.8202 35.1372 83.8763 35.0814 83.9887C35.0255 84.0449 35.0255 84.1572 35.0255 84.2134C35.0255 84.3258 35.0255 84.3819 35.0814 84.4943C35.1372 84.6067 35.1931 84.6629 35.3048 84.719C35.4166 84.7752 35.4724 84.8314 35.5841 84.8876C35.6959 84.9438 35.8076 84.9437 35.9752 84.9437C36.1428 84.9437 36.3662 84.8876 36.5338 84.8314C36.7572 84.7752 36.9248 84.6628 37.0924 84.4943C37.26 84.3819 37.4276 84.1572 37.5952 83.9887C37.7628 83.764 37.9303 83.5393 38.0421 83.2022L41.0586 76.1797H40.4441L38.7124 80.5617ZM50.4435 76.9662C50.1641 76.6853 49.829 76.5168 49.4379 76.3482C49.0469 76.1797 48.6559 76.1235 48.209 76.1235C47.7621 76.1235 47.3152 76.1797 46.98 76.3482C46.589 76.5168 46.2538 76.7415 45.9745 77.0224C45.6952 77.3033 45.4717 77.6404 45.3041 78.0336C45.1366 78.4269 45.0807 78.8202 45.0807 79.2696C45.0807 79.6629 45.1366 80.0561 45.3041 80.4494C45.4717 80.8426 45.6952 81.1235 45.9745 81.4044C46.2538 81.6853 46.589 81.91 46.98 82.0786C47.371 82.2471 47.7621 82.3033 48.209 82.3033C48.6559 82.3033 49.1028 82.1909 49.4379 82.0224C49.829 81.8539 50.1641 81.6291 50.4435 81.2921C50.7228 81.0112 50.9462 80.6179 51.1138 80.2247C51.2814 79.8314 51.3372 79.382 51.3372 78.9325C51.3372 78.5393 51.2814 78.146 51.1138 77.8089C50.8903 77.5842 50.7228 77.2471 50.4435 76.9662ZM49.8848 80.5617C49.829 80.8426 49.7172 81.0673 49.5497 81.2921C49.3821 81.5168 49.2145 81.6291 49.0469 81.7977C48.8793 81.91 48.6559 81.9662 48.4324 81.9662C48.0972 81.9662 47.8179 81.91 47.5945 81.7415C47.3152 81.573 47.1476 81.3482 46.98 81.0673C46.8124 80.7864 46.7007 80.4494 46.589 80.0561C46.4772 79.6629 46.4772 79.2696 46.4772 78.8202C46.4772 78.5393 46.5331 78.2584 46.589 77.9775C46.7007 77.6966 46.8124 77.4718 46.9241 77.3033C47.0917 77.0786 47.2034 76.9662 47.4269 76.8539C47.5945 76.7415 47.8179 76.6853 47.9855 76.6853C48.3766 76.6853 48.7117 76.7415 48.991 76.91C49.2703 77.0786 49.4938 77.3033 49.6614 77.5842C49.829 77.8651 49.9407 78.2022 49.9966 78.5954C50.0524 78.9887 50.1083 79.382 50.1083 79.8314C49.9966 79.9999 49.9407 80.2808 49.8848 80.5617ZM56.5883 73.4831C56.4766 73.3707 56.2531 73.3145 56.0855 73.2584C55.8621 73.2022 55.6386 73.2022 55.3593 73.2022C55.08 73.2022 54.7448 73.2584 54.5214 73.3707C54.2421 73.4831 54.0186 73.6516 53.7952 73.8763C53.5717 74.1011 53.46 74.3258 53.3483 74.6067C53.2366 74.8876 53.1807 75.2246 53.1807 75.5055V76.1797H51.9517V76.6853H53.1807V82.1348H54.3538V76.6853H55.9179V76.1797H54.3538V74.7752C54.3538 74.6067 54.3538 74.4943 54.4097 74.3258C54.4655 74.1572 54.5214 74.0449 54.5772 73.9325C54.6331 73.8202 54.7448 73.7078 54.8565 73.6516C54.9683 73.5954 55.08 73.5393 55.1917 73.5393C55.3593 73.5393 55.471 73.5954 55.5269 73.5954C55.5828 73.6516 55.6945 73.7078 55.6945 73.8202C55.7503 73.9325 55.7503 73.9887 55.8062 74.1011C55.8062 74.2134 55.8621 74.2696 55.9179 74.3819C55.9738 74.4943 56.0297 74.5505 56.0855 74.6067C56.1414 74.6629 56.2531 74.6628 56.4207 74.6628C56.4766 74.6628 56.5883 74.6629 56.6441 74.6067C56.7 74.6067 56.7559 74.5505 56.8117 74.4943C56.8676 74.4381 56.9235 74.382 56.9235 74.3258C56.9793 74.2696 56.9793 74.1572 56.9793 74.1011C56.9793 73.9325 56.9235 73.8202 56.8676 73.7078C56.8117 73.7078 56.7 73.5954 56.5883 73.4831ZM65.6379 78.0336H61.7834V74.4943H60.4986V82.2471H61.7834V78.5393H65.6379V82.2471H66.9228V74.4943H65.6379V78.0336ZM73.4028 80.5055C73.291 80.6741 73.1235 80.8426 72.9 80.955C72.7324 81.0673 72.509 81.1797 72.2855 81.2921C72.0621 81.3482 71.7828 81.4044 71.5593 81.4044C71.28 81.4044 70.9448 81.3482 70.7214 81.1797C70.4421 81.0112 70.2186 80.8426 70.051 80.6179C69.8834 80.3932 69.7159 80.0561 69.6041 79.719C69.4924 79.3819 69.4366 78.9887 69.4366 78.5954H73.8497C73.8497 78.2584 73.7938 77.9213 73.6821 77.6404C73.5703 77.3595 73.3469 77.0786 73.1234 76.8539C72.9 76.6291 72.6207 76.4606 72.2855 76.2921C71.9503 76.1797 71.6152 76.0673 71.2241 76.0673C70.7772 76.0673 70.3862 76.1235 70.051 76.2921C69.7159 76.4606 69.3807 76.6853 69.1572 76.9662C68.8779 77.2471 68.7103 77.6404 68.5428 78.0336C68.3752 78.4269 68.3193 78.8763 68.3193 79.382C68.3193 79.7752 68.3752 80.1685 68.5428 80.5055C68.7103 80.8426 68.8779 81.1797 69.1572 81.4044C69.4366 81.6853 69.7159 81.8539 70.1069 82.0224C70.4421 82.1909 70.8331 82.2471 71.2241 82.2471C71.5034 82.2471 71.8386 82.1909 72.1179 82.0786C72.3972 81.9662 72.6766 81.7977 72.9559 81.6291C73.2352 81.4044 73.4028 81.1797 73.6262 80.8988C73.7938 80.6179 73.9614 80.337 74.0172 80.0561L73.6821 79.8876C73.6262 80.1685 73.5703 80.337 73.4028 80.5055ZM69.6041 77.528C69.66 77.3595 69.7717 77.1909 69.9393 77.0224C70.051 76.91 70.2186 76.7977 70.3862 76.6853C70.5538 76.6291 70.7214 76.573 70.889 76.573C71.1124 76.573 71.28 76.6291 71.5034 76.6853C71.671 76.7415 71.8386 76.8539 72.0062 77.0224C72.1179 77.1909 72.2297 77.3595 72.3414 77.528C72.3972 77.6966 72.4531 77.9213 72.4531 78.146H69.4924C69.4924 77.9213 69.5483 77.7527 69.6041 77.528ZM79.0448 76.573C78.8772 76.4606 78.6538 76.3482 78.3745 76.2359C78.0952 76.1797 77.76 76.1235 77.369 76.1235C77.0338 76.1235 76.7545 76.1797 76.4752 76.2359C76.1959 76.2921 75.9165 76.4044 75.6931 76.5168C75.4697 76.6291 75.3021 76.7977 75.1903 76.9662C75.0786 77.1348 75.0228 77.3033 75.0228 77.528C75.0228 77.6404 75.0228 77.6966 75.0786 77.8089C75.1345 77.9213 75.1345 77.9775 75.1903 78.0336C75.2462 78.0898 75.3021 78.146 75.4138 78.2022C75.4697 78.2584 75.5814 78.2584 75.6372 78.2584C75.749 78.2584 75.8607 78.2584 75.9165 78.2022C75.9724 78.146 76.0283 78.0898 76.0841 78.0336C76.14 77.9775 76.14 77.8651 76.1959 77.8089C76.1959 77.6966 76.1959 77.6404 76.1959 77.528C76.1959 77.4157 76.1959 77.3033 76.2517 77.1909C76.2517 77.0786 76.3076 76.9662 76.4193 76.91C76.4752 76.7977 76.5869 76.7415 76.6986 76.6853C76.8103 76.6291 76.9779 76.6291 77.2014 76.6291C77.369 76.6291 77.5366 76.6291 77.7041 76.6853C77.8717 76.7415 77.9834 76.7977 78.0393 76.91C78.151 77.0224 78.2069 77.1909 78.2628 77.3595C78.3186 77.528 78.3186 77.7527 78.3186 78.0336V78.4269C78.0393 78.4831 77.76 78.5393 77.4807 78.6516C77.2014 78.7078 76.9221 78.8202 76.6986 78.9325C76.4193 79.0449 76.1959 79.1572 75.9724 79.2696C75.749 79.382 75.5255 79.5505 75.3579 79.719C75.1903 79.8876 75.0228 80.0561 74.9669 80.2808C74.8552 80.5055 74.7993 80.7303 74.7993 80.955C74.7993 81.1797 74.8552 81.3482 74.911 81.5168C74.9669 81.6853 75.0786 81.8539 75.1903 81.9662C75.3021 82.0786 75.4697 82.1909 75.6931 82.3033C75.8607 82.3595 76.0841 82.4157 76.3076 82.4157C76.531 82.4157 76.7545 82.3595 76.9779 82.3033C77.1455 82.2471 77.3131 82.1909 77.4807 82.0786C77.6483 81.9662 77.76 81.91 77.9276 81.7977C78.0393 81.6853 78.2069 81.573 78.3186 81.4606V82.3033H79.4917V77.8089C79.4917 77.5842 79.4359 77.3595 79.38 77.1348C79.3241 76.8539 79.2124 76.6853 79.0448 76.573ZM78.3186 80.955C78.2069 81.0673 78.0952 81.1235 77.9835 81.2359C77.8717 81.2921 77.76 81.4044 77.6483 81.4606C77.5366 81.5168 77.4248 81.573 77.3131 81.6291C77.2014 81.6853 77.0897 81.6853 76.9221 81.6853C76.8103 81.6853 76.6986 81.6291 76.5869 81.573C76.4752 81.5168 76.3634 81.4606 76.2517 81.3482C76.14 81.2359 76.0841 81.1235 76.0283 81.0112C75.9724 80.8988 75.9724 80.7303 75.9724 80.6179C75.9724 80.4494 76.0283 80.337 76.0841 80.2247C76.14 80.1123 76.2517 79.9999 76.3634 79.8314C76.4752 79.719 76.6428 79.6067 76.7545 79.4943C76.9221 79.382 77.0897 79.2696 77.2572 79.2134C77.4248 79.1011 77.5924 79.0449 77.8159 78.9887C77.9835 78.9325 78.151 78.8763 78.3186 78.8202V80.955ZM81.1676 73.5393V82.2471H82.3407V73.2022H82.0055L81.1676 73.5393ZM86.3628 81.5168C86.251 81.573 86.1393 81.6291 86.0276 81.6291C85.9159 81.6291 85.86 81.6291 85.7483 81.573C85.6924 81.5168 85.5807 81.5168 85.5248 81.4606C85.469 81.4044 85.4131 81.3482 85.4131 81.2359C85.3572 81.1797 85.3572 81.0673 85.3572 81.0112V76.7977H86.6979V76.2921H85.3572V74.2696H85.0221C84.9662 74.5505 84.9103 74.8876 84.7986 75.1123C84.7428 75.3932 84.631 75.6179 84.4634 75.8426C84.3517 76.0673 84.1283 76.2359 83.9607 76.3482C83.7372 76.4606 83.4579 76.5168 83.1228 76.5168V76.7977H84.1283V81.0112C84.1283 81.2359 84.1283 81.4044 84.1841 81.573C84.24 81.7415 84.2959 81.91 84.4076 82.0224C84.5193 82.1348 84.631 82.2471 84.7428 82.3033C84.9103 82.3595 85.0779 82.4157 85.2455 82.4157C85.6366 82.4157 85.9717 82.3595 86.1952 82.1909C86.4745 82.0224 86.6421 81.7977 86.8097 81.5168L86.5303 81.2921C86.5303 81.3482 86.4745 81.4606 86.3628 81.5168ZM92.5076 77.2471C92.4517 77.0224 92.34 76.8539 92.1724 76.6853C92.0607 76.5168 91.8931 76.4044 91.6697 76.2921C91.5021 76.1797 91.2786 76.1235 91.111 76.1235C90.72 76.1235 90.329 76.2359 89.9379 76.4044C89.5469 76.6291 89.1559 76.91 88.8207 77.3033V73.146H88.4855L87.6476 73.4831V82.1909H88.8207V77.7527C88.9324 77.6404 89.1 77.528 89.2117 77.4157C89.3793 77.3033 89.491 77.2471 89.6586 77.1348C89.8262 77.0786 89.9379 77.0224 90.1055 76.9662C90.2731 76.91 90.3848 76.91 90.4966 76.91C90.7759 76.91 90.9993 77.0224 91.1669 77.1909C91.3345 77.4157 91.4462 77.6966 91.4462 78.0898V82.1909H92.6193V77.9213C92.6193 77.6966 92.5635 77.4718 92.5076 77.2471Z" fill="#9E925E"/>
<path fill-rule="evenodd" clip-rule="evenodd" d="M63.683 26.9661C62.9568 27.4156 62.2306 27.865 61.8396 28.1459C60.6665 28.9886 59.4934 29.8313 58.3203 30.7302C53.1251 34.7189 47.9858 39.3257 44.0196 43.8201H34.6348C34.6348 43.8201 57.6499 23.8763 68.2079 22.3032C77.5927 20.9549 81.2796 27.8088 80.4975 35.1684C80.6093 34.2695 80.5534 33.3706 80.4417 32.5279C80.1065 30.5616 79.2686 28.9324 78.1513 27.6965C77.2017 26.6852 76.0844 25.7864 74.5203 25.1684C73.1796 24.6628 71.7272 24.438 70.2189 24.5504C70.163 24.5504 67.4817 24.6628 63.683 26.9661Z" fill="#9E925E"/>
<path fill-rule="evenodd" clip-rule="evenodd" d="M28.8804 26.9661C29.6066 27.4156 30.3328 27.865 30.7238 28.1459C31.8969 28.9886 33.07 29.8313 34.2431 30.7302C39.4383 34.7189 44.5776 39.3257 48.5438 43.8201H57.9286C57.9286 43.8201 34.9135 23.8763 24.3555 22.3032C14.9148 20.9549 11.2838 27.8088 12.0659 35.1684C11.9542 34.2695 12.01 33.3706 12.1217 32.5279C12.4569 30.5616 13.2948 28.9324 14.4121 27.6965C15.3617 26.6852 16.479 25.7864 18.0431 25.1684C19.3838 24.6628 20.8362 24.438 22.3445 24.5504C22.4004 24.5504 25.0817 24.6628 28.8804 26.9661Z" fill="#9E925E"/>
<path d="M45.8067 65.8989H41.617L41.6729 65.618C41.7846 64.8877 41.8405 64.1011 41.8405 63.6517C41.8405 61.0674 40.7232 58.0337 37.4832 58.0337C36.366 58.0337 35.3046 58.5393 34.4667 59.1573C33.4612 59.8877 32.5674 60.7304 31.897 61.7416C31.115 62.9214 30.5564 64.2135 29.9419 65.4495C29.886 65.5618 29.8301 65.6742 29.7743 65.8427H29.7184V60.8427H28.4336V65.8427H24.635V65.3371C24.635 60.0562 20.8364 58.2023 17.5964 58.2023H12.6246V59.3259C12.9598 59.3259 17.2053 59.2697 17.4288 59.2697C21.0598 59.2697 23.2384 61.6292 23.2384 65.618V65.8427H7.26187V57.4719C6.87084 57.4158 6.20049 57.4157 5.92118 57.4157C3.57497 57.4157 0.0556641 59.1011 0.0556641 62.809C0.0556641 64.045 0.502561 65.0562 1.34049 65.7865C2.12256 66.4607 3.18394 66.854 4.35704 66.854H4.74808L5.58601 65.9551L5.64187 65.8989H4.69221C2.73704 65.8989 1.45222 64.6629 1.45222 62.7528C1.45222 61.0113 2.29015 60 2.96049 59.4382C3.85428 58.7641 4.8598 58.4832 5.47428 58.4832H5.92118V66.7978H47.0915V51.9663H45.8067V65.8989ZM40.3322 65.7304L40.2763 65.8989H31.0032L31.0591 65.618C31.8412 61.9663 35.137 59.1573 37.3715 59.1573C38.0977 59.1573 40.4439 59.4944 40.4439 63.9326C40.4998 64.2135 40.4439 65.1686 40.3322 65.7304ZM51.2253 66.9101H52.5101V51.9663H51.2253V66.9101ZM3.46325 55.3933C4.02187 55.3933 4.46877 54.9438 4.46877 54.382C4.46877 53.8202 4.02187 53.3708 3.46325 53.3708C2.90463 53.3708 2.45773 53.8202 2.45773 54.382C2.45773 54.9438 2.90463 55.3933 3.46325 55.3933ZM62.3977 55.3933C62.9563 55.3933 63.4032 54.9438 63.4032 54.382C63.4032 53.8202 62.9563 53.3708 62.3977 53.3708C61.8391 53.3708 61.3922 53.8202 61.3922 54.382C61.3922 54.9438 61.8391 55.3933 62.3977 55.3933ZM6.42394 55.3933C6.98256 55.3933 7.42946 54.9438 7.42946 54.382C7.42946 53.8202 6.98256 53.3708 6.42394 53.3708C5.86532 53.3708 5.41842 53.8202 5.41842 54.382C5.41842 54.9438 5.86532 55.3933 6.42394 55.3933ZM75.8046 66.9101H77.0894V51.9663H75.8046V66.9101ZM58.9343 62.9775C58.9343 65.2247 60.7777 66.9101 63.2357 66.9101H66.1405V57.5843C65.7495 57.5281 65.3584 57.5281 64.8557 57.5281C61.5598 57.4719 58.9343 59.8877 58.9343 62.9775ZM64.8557 65.8989H63.6267C61.3922 65.8989 60.3867 64.3259 60.3867 62.7528C60.3867 60 62.4536 58.5393 64.4088 58.5393H64.8557V65.8989ZM82.1729 53.427C81.6143 53.427 81.1674 53.8764 81.1674 54.4382C81.1674 55 81.6143 55.4495 82.1729 55.4495C82.7315 55.4495 83.1784 55 83.1784 54.4382C83.1784 53.8764 82.7315 53.427 82.1729 53.427ZM91.7812 57.7528C88.4294 57.7528 85.7481 60.0562 85.7481 63.0337C85.7481 65.8427 88.206 66.854 89.8819 66.854C90.1053 66.854 90.2729 66.854 90.3846 66.854L91.055 66.1798L91.3343 65.8989H90.4963C88.8763 65.8989 87.2005 64.9438 87.2005 62.8652C87.2005 61.0113 88.9322 58.8764 91.2225 58.8764H91.446V67.0225C91.446 68.5955 91.1667 70.0562 89.0439 70.0562C88.8763 70.0562 88.6529 70.0562 88.3736 70L88.206 71.0113C88.5412 71.0674 88.8763 71.1236 89.3791 71.1236C90.3846 71.1236 92.7308 70.7865 92.7308 67.6405V57.8652C92.2839 57.809 92.0046 57.7528 91.7812 57.7528ZM81.5584 67.6967C81.5584 69.382 80.8881 70.1124 79.2122 70.1124C79.0446 70.1124 78.7653 70.0562 78.5419 70.0562L78.3743 71.1236C78.877 71.1798 79.1005 71.236 79.5474 71.236C80.5529 71.236 82.8432 70.9551 82.8432 68.1461V58.9326H81.5584V67.6967ZM65.3584 53.427C64.7998 53.427 64.3529 53.8764 64.3529 54.4382C64.3529 55 64.7998 55.4495 65.3584 55.4495C65.917 55.4495 66.3639 55 66.3639 54.4382C66.3081 53.8764 65.8612 53.427 65.3584 53.427ZM70.5536 67.6967C70.5536 69.382 69.8832 70.1124 68.2074 70.1124C68.0398 70.1124 67.7605 70.0562 67.537 70.0562L67.3695 71.1236C67.8722 71.1798 68.0957 71.236 68.5425 71.236C69.5481 71.236 71.8384 70.9551 71.8384 68.1461V58.9326H70.5536V67.6967Z" fill="#008556"/>
<path d="M26.8141 31.9664L23.6299 28.708L20.781 31.5732L17.9878 28.708L14.8037 31.9664L17.9878 35.1687L20.781 32.3035L23.6299 35.1687L26.8141 31.9664Z" fill="#008556"/>
<path d="M61.0575 7.92135C60.834 7.35955 60.4989 6.79775 60.1637 6.23596C57.2589 1.68539 51.7285 -0.0561797 46.8685 1.62921C46.5892 0.617978 46.3658 0 46.3658 0C46.3658 0 46.1423 0.617978 45.8071 1.62921C40.9471 -0.0561797 35.4168 1.68539 32.512 6.23596C32.1768 6.79775 31.8416 7.35955 31.6182 7.92135C33.6851 5.67416 36.4782 4.38202 39.383 4.21348C36.7016 6.29214 34.914 9.60674 34.914 13.2584C34.914 13.9326 34.9699 14.5506 35.0816 15.1685C35.6402 11.8539 37.6513 8.98876 40.3885 7.30337C38.6568 10.7865 38.7126 15.1124 41.003 18.6517C41.3382 19.2135 41.7292 19.7191 42.1761 20.1685C40.2768 15.7865 41.3382 10.618 44.8016 7.35955C44.7458 8.20225 44.6899 9.10112 44.6899 10.0562C44.6899 15.618 46.3658 20.0562 46.3658 20.0562C46.3658 20.0562 48.0416 15.5618 48.0416 10.0562C48.0416 9.1573 47.9858 8.25843 47.9299 7.35955C51.3933 10.618 52.4547 15.7865 50.5554 20.1685C51.0023 19.7191 51.3375 19.2135 51.7285 18.6517C54.0189 15.1124 54.0747 10.7865 52.343 7.30337C55.1361 8.98876 57.0913 11.8539 57.6499 15.1685C57.7616 14.5506 57.8175 13.9326 57.8175 13.2584C57.8175 9.55056 56.0858 6.29214 53.3485 4.21348C56.1975 4.38202 58.9906 5.67416 61.0575 7.92135Z" fill="#008556"/>
<path fill-rule="evenodd" clip-rule="evenodd" d="M34.8018 26.7417C34.8018 26.7417 42.9576 14.8878 57.37 30.2811C70.9445 44.7754 76.028 42.3597 79.8824 37.753C79.8824 37.753 79.659 38.3148 79.3238 38.8766C79.0445 39.326 78.8769 39.5507 78.8211 39.6069C76.9217 42.1912 74.1845 43.8204 70.8328 43.8204C66.5314 43.8766 61.1687 41.2361 55.1914 34.6069C41.8404 19.7754 34.8018 26.7417 34.8018 26.7417Z" fill="#008556"/>
</svg>
