<svg width="139" height="84" viewBox="0 0 139 84" fill="none" xmlns="http://www.w3.org/2000/svg">
<path d="M104.253 48.3258V48.4382C104.253 54.337 100.007 58.6067 93.0806 58.6067C87.4944 58.6067 83.6399 56.3595 80.9585 53.2134L85.6509 48.7191C87.7737 51.1348 90.0082 52.4831 93.1364 52.4831C95.7061 52.4831 97.5495 51.0224 97.5495 48.7191V48.6067C97.5495 46.0786 95.315 44.6179 91.4606 44.6179H88.6116L87.5502 40.2359L97.4937 30.1797L93.5275 32.764H82.7461V26.9213H103.806V32.0898L95.9854 39.6179C100.175 40.2921 104.253 42.5393 104.253 48.3258ZM84.813 12.6516C84.813 9.84265 86.824 7.53928 89.673 7.53928H92.8571L92.0192 7.93254V15.6292C92.0192 16.191 92.0751 16.6404 92.1309 17.0898C92.1868 17.3146 92.2426 17.5393 92.3544 17.764H89.673C86.8799 17.8202 84.813 15.5168 84.813 12.6516ZM89.673 19.1123H92.5219V18.1011C92.5219 18.1573 92.5778 18.2134 92.6337 18.2696C92.8571 18.5505 93.0806 18.7752 93.4157 18.9438C93.7509 19.1123 94.142 19.1685 94.6447 19.1685H119.447V6.30333H118.107V17.8202H116.654H94.6447C94.3654 17.8202 94.1978 17.764 94.0302 17.7078C93.8626 17.6516 93.7509 17.5393 93.6392 17.3707C93.5275 17.2022 93.4716 16.9775 93.4157 16.6966C93.3599 16.4157 93.3599 16.0786 93.3599 15.7415V6.30333H89.673C85.9302 6.30333 83.3606 9.28085 83.3606 12.7078V12.764C83.3606 16.191 85.8744 19.1123 89.673 19.1123ZM129.447 4.89883H126.486V3.77524C126.486 3.15726 126.654 2.70782 126.877 2.4831C127.156 2.2022 127.547 2.08984 128.05 2.08984H129V3.0449H128.05C127.827 3.0449 127.715 3.10108 127.603 3.15726C127.547 3.26962 127.492 3.38198 127.492 3.55052V3.8876H129.335V4.89883H129.447ZM132.91 19.337C132.575 19.337 132.184 19.2809 131.793 19.1685L132.128 17.8764C132.296 17.9325 132.407 17.9325 132.519 17.9887C132.631 17.9887 132.743 17.9887 132.854 17.9887C133.134 17.9887 133.301 17.9325 133.469 17.8764C133.636 17.8202 133.748 17.7078 133.86 17.5393C133.972 17.3707 134.027 17.146 134.083 16.8651C134.139 16.5842 134.139 16.2471 134.139 15.9101V6.30333H135.48V15.8539C135.48 16.4157 135.424 16.8651 135.368 17.3146C135.256 17.764 135.145 18.1011 134.921 18.382C134.698 18.6629 134.474 18.8876 134.139 19.0561C133.804 19.2247 133.413 19.337 132.91 19.337ZM93.3599 4.89883H92.0192V3.55052H93.3599V4.89883ZM123.302 9.61793C123.525 9.22467 123.805 8.83142 124.14 8.55052C124.475 8.26962 124.866 8.0449 125.313 7.87636C125.76 7.70782 126.207 7.65164 126.654 7.65164H128.832L128.05 8.0449V14.1685H126.71C126.207 14.1685 125.704 14.1123 125.257 13.9438C124.81 13.7752 124.419 13.6067 124.084 13.3258C123.749 13.0449 123.47 12.7078 123.302 12.3146C123.134 11.9213 123.023 11.4719 123.023 10.9662C123.023 10.5168 123.134 10.0674 123.302 9.61793ZM123.302 14.5056C123.805 14.8988 124.419 15.1236 125.09 15.3483C125.76 15.5168 126.486 15.6292 127.268 15.6292H127.603L128.05 14.6741V16.0224C128.05 16.7528 127.827 17.2584 127.436 17.5393C127.045 17.8202 126.43 17.9887 125.704 17.9887C125.257 17.9887 124.922 17.9325 124.587 17.8764C124.252 17.8202 123.861 17.6516 123.414 17.4831L122.967 18.7752C123.47 18.9438 123.972 19.1123 124.363 19.2247C124.754 19.337 125.145 19.3932 125.592 19.3932C126.933 19.3932 127.883 19.0561 128.497 18.4382C129.112 17.8202 129.391 16.9775 129.391 15.9101V6.30333H127.268C126.43 6.30333 125.648 6.41569 124.978 6.64041C124.307 6.86512 123.693 7.2022 123.19 7.59546C122.687 7.98872 122.296 8.49434 122.017 9.05614C121.738 9.61793 121.626 10.2359 121.626 10.9101C121.626 11.6966 121.794 12.4269 122.073 12.9887C122.408 13.6629 122.799 14.1123 123.302 14.5056ZM90.6226 4.89883H89.282V3.55052H90.6226V4.89883ZM76.5454 6.24715H77.942V19.0561H76.7689L67.7192 7.53928L68.5013 9.39321V19.0561H67.1047V6.24715H68.4454L77.104 17.2584L76.4895 15.6853V6.24715H76.5454ZM23.4764 19.1685L18.002 6.24715H19.622L20.404 8.15726L24.1468 17.3146L24.482 18.2134L24.3702 16.8089L28.7275 6.30333H30.2916L24.8171 19.2247H23.4764V19.1685ZM47.8323 6.24715H49.2847V19.0561H47.8323V6.24715ZM63.3061 12.7078C63.3061 15.6292 61.2392 17.9887 58.2785 17.9887C55.3178 17.9887 53.2509 15.6292 53.2509 12.7078V12.6516C53.2509 9.73029 55.3178 7.37074 58.2785 7.37074C61.1833 7.37074 63.3061 9.78647 63.3061 12.7078ZM58.2785 6.07861C54.3682 6.07861 51.7426 9.16849 51.7426 12.7078V12.764C51.7426 16.3033 54.3682 19.337 58.2226 19.337C62.0771 19.337 64.7585 16.2471 64.7585 12.7078V12.6516C64.7585 9.11232 62.1889 6.07861 58.2785 6.07861ZM45.4302 15.6292C45.4302 17.8764 43.5868 19.2809 41.073 19.2809C39.062 19.2809 37.3861 18.6067 35.8778 17.2022L36.7716 16.1348C38.1123 17.3707 39.3971 17.9325 41.1288 17.9325C42.8606 17.9325 43.9778 17.0337 43.9778 15.7415V15.6853C43.9778 14.5056 43.3633 13.8314 40.682 13.2696C37.7213 12.6516 36.3806 11.6966 36.3806 9.56175V9.50557C36.3806 7.4831 38.1682 6.02243 40.5702 6.02243C42.4137 6.02243 43.7544 6.52805 45.0392 7.59546L44.2013 8.71906C43.0282 7.764 41.8551 7.31456 40.5144 7.31456C38.8385 7.31456 37.7771 8.21344 37.7771 9.39321V9.44939C37.7771 10.6853 38.4475 11.3595 41.2406 11.9213C44.1454 12.5955 45.4302 13.6629 45.4302 15.6292ZM33.6433 19.1123H32.1909V6.24715H33.6433V19.1123ZM117.604 20.573H118.945V21.9213H117.604V20.573ZM114.867 20.573H116.207V21.9213H114.867V20.573ZM29.3978 52.146H41.2406V58.0449H18.2813V52.5955L28.6157 44.1123C32.4702 40.9101 33.9785 39.2247 33.9785 36.6404C33.9785 34 32.2468 32.5955 29.7889 32.5955C27.3868 32.5955 25.7668 33.9438 23.4206 36.7528L18.6164 32.8764C21.6889 28.7191 24.6495 26.4157 30.1799 26.4157C36.604 26.4157 40.8495 30.1797 40.8495 36.0224V36.1348C40.8495 41.3595 38.1682 43.9438 32.6937 48.2134L25.9344 53.4943L24.5937 54.5056L29.3978 52.146ZM131.905 42.5955C131.905 47.9325 128.106 52.3146 122.576 52.3146C117.101 52.3146 113.191 47.8764 113.191 42.5393V42.4269C113.191 37.0898 116.99 32.7078 122.52 32.7078C128.05 32.7078 131.905 37.146 131.905 42.4831V42.5955ZM122.576 26.3595C113.023 26.3595 106.041 33.6067 106.041 42.4831V42.5955C106.041 51.4719 112.912 58.6067 122.464 58.6067C132.016 58.6067 138.999 51.3595 138.999 42.4831V42.3707C138.999 33.5505 132.128 26.3595 122.576 26.3595Z" fill="#AEAAAE"/>
<path d="M59.7876 24.3372L61.3517 25.854L59.8434 27.427L58.2793 25.9102L59.7876 24.3372Z" fill="#28387C"/>
<path d="M63.3613 25.9102L64.9255 27.427L66.4337 25.854L64.8696 24.3372L63.3613 25.9102Z" fill="#B2AFB3"/>
<path d="M61.127 27.8764L62.3559 29.0562L63.529 27.8764L62.3001 26.6967L61.127 27.8764Z" fill="#D1DA30"/>
<path d="M65.6523 28.5505L66.8813 29.7303L68.0544 28.5505L66.8254 27.3707L65.6523 28.5505Z" fill="#73BB44"/>
<path d="M59.1719 29.7866L60.4008 30.9664L61.574 29.7304L60.345 28.5507L59.1719 29.7866Z" fill="#D1DA30"/>
<path d="M63.251 29.8986L64.4799 31.0784L65.653 29.8986L64.4241 28.7189L63.251 29.8986Z" fill="#28B7BD"/>
<path d="M61.6309 31.3594L62.5247 32.146L63.3626 31.3033L62.4688 30.4606L61.6309 31.3594Z" fill="#73BB44"/>
<path d="M64.8701 31.9773L65.7639 32.82L66.6018 31.9773L65.708 31.1346L64.8701 31.9773Z" fill="#59B75E"/>
<path d="M74.6523 24.8986L71.96 25.3949L72.4535 28.1026L75.1458 27.6062L74.6523 24.8986Z" fill="#2F89C9"/>
<path d="M70.6224 26.1287L68.4795 26.5233L68.8719 28.6784L71.0147 28.2838L70.6224 26.1287Z" fill="#213A71"/>
<path d="M74.7718 29.1581L72.6289 29.5533L73.0219 31.7084L75.1648 31.3132L74.7718 29.1581Z" fill="#28B7BD"/>
<path d="M71.3456 29.5383L69.6973 29.842L69.9993 31.4998L71.6476 31.1961L71.3456 29.5383Z" fill="#D1DA30"/>
<path d="M74.5888 32.7413L72.9404 33.045L73.2424 34.7028L74.8908 34.3991L74.5888 32.7413Z" fill="#B2AFB3"/>
<path d="M68.831 30.2152L67.1826 30.5189L67.4846 32.1767L69.133 31.873L68.831 30.2152Z" fill="#28B7BD"/>
<path d="M71.8466 32.4082L70.1982 32.7119L70.5002 34.3697L72.1486 34.066L71.8466 32.4082Z" fill="#73BB44"/>
<path d="M69.2222 32.7336L68.0684 32.9463L68.2799 34.1067L69.4337 33.894L69.2222 32.7336Z" fill="#B2AFB3"/>
<path d="M71.5104 35.1438L70.3564 35.356L70.5674 36.5165L71.7214 36.3044L71.5104 35.1438Z" fill="#59B75E"/>
<path d="M79.9534 34.2246L78.7803 36.6403L81.2382 37.8201L82.4113 35.3482L79.9534 34.2246Z" fill="#28387C"/>
<path d="M76.4338 33.045L75.54 35.0113L77.4952 35.9664L78.4449 34.0001L76.4338 33.045Z" fill="#28B7BD"/>
<path d="M78.0541 37.9326L77.1045 39.8989L79.1155 40.854L80.0093 38.8877L78.0541 37.9326Z" fill="#73BB44"/>
<path d="M75.485 36.4159L74.7588 37.9889L76.2671 38.7193L76.9933 37.2024L75.485 36.4159Z" fill="#D1DA30"/>
<path d="M76.2663 40.9103L75.54 42.4833L77.0483 43.2136L77.7745 41.6406L76.2663 40.9103Z" fill="#D1DA30"/>
<path d="M73.0817 35.5168L72.3555 37.0899L73.8637 37.8202L74.59 36.2472L73.0817 35.5168Z" fill="#2F89C9"/>
<path d="M74.2555 39.1122L73.5293 40.629L75.0376 41.3594L75.7638 39.8425L74.2555 39.1122Z" fill="#B2AFB3"/>
<path d="M72.4119 37.9885L71.9092 39.0559L72.9706 39.6177L73.4733 38.4941L72.4119 37.9885Z" fill="#73BB44"/>
<path d="M72.7599 41.318L72.2559 42.3833L73.3152 42.8903L73.8193 41.8249L72.7599 41.318Z" fill="#28B7BD"/>
<path d="M81.2378 45.9664L78.8916 47.3147L80.1764 49.6743L82.5785 48.3822L81.2378 45.9664Z" fill="#2F89C9"/>
<path d="M79.1153 43.0447L77.1602 44.0559L78.2215 45.966L80.1208 44.9548L79.1153 43.0447Z" fill="#28B7BD"/>
<path d="M77.5507 47.9327L75.6514 48.944L76.7127 50.8541L78.612 49.8429L77.5507 47.9327Z" fill="#28B7BD"/>
<path d="M76.3215 45.1797L74.8691 46.0224L75.6512 47.4831L77.1595 46.6965L76.3215 45.1797Z" fill="#28387C"/>
<path d="M74.3667 49.2809L72.8584 50.1236L73.6963 51.5843L75.1487 50.7977L74.3667 49.2809Z" fill="#59B75E"/>
<path d="M74.9253 43.0447L73.417 43.8312L74.2549 45.348L75.7074 44.5054L74.9253 43.0447Z" fill="#213A71"/>
<path d="M73.8081 46.5841L72.2998 47.4268L73.1377 48.8875L74.5901 48.101L73.8081 46.5841Z" fill="#D1DA30"/>
<path d="M72.9149 44.6178L71.8535 45.2358L72.468 46.247L73.4735 45.6852L72.9149 44.6178Z" fill="#B2AFB3"/>
<path d="M71.3504 47.5391L70.2891 48.157L70.8477 49.1683L71.9091 48.6065L71.3504 47.5391Z" fill="#28B7BD"/>
<path d="M72.7526 55.9522L72.417 58.6843L75.1337 59.0218L75.4693 56.2897L72.7526 55.9522Z" fill="#73BB44"/>
<path d="M73.2621 52.3674L72.9941 54.5417L75.1562 54.8112L75.4242 52.6369L73.2621 52.3674Z" fill="#213A71"/>
<path d="M69.1957 55.4245L68.9277 57.5989L71.0898 57.8684L71.3578 55.694L69.1957 55.4245Z" fill="#28B7BD"/>
<path d="M70.2232 52.6221L70.0176 54.2947L71.6807 54.5015L71.8863 52.8289L70.2232 52.6221Z" fill="#73BB44"/>
<path d="M66.2652 54.7514L66.0596 56.424L67.7227 56.6307L67.9283 54.9582L66.2652 54.7514Z" fill="#B2AFB3"/>
<path d="M70.3399 50.0071L70.1338 51.6797L71.7969 51.887L72.0031 50.2144L70.3399 50.0071Z" fill="#B2AFB3"/>
<path d="M67.3546 52.2198L67.1484 53.8923L68.8116 54.0996L69.0177 52.4271L67.3546 52.2198Z" fill="#73BB44"/>
<path d="M68.2769 50.2139L68.1328 51.3848L69.297 51.5296L69.4411 50.3588L68.2769 50.2139Z" fill="#B2AFB3"/>
<path d="M65.308 51.6716L65.1641 52.8424L66.3282 52.9872L66.4722 51.8164L65.308 51.6716Z" fill="#B2AFB3"/>
<path d="M64.7029 61.3035L62.7477 59.4496L60.9043 61.4159L62.8595 63.2698L64.7029 61.3035Z" fill="#D1DA30"/>
<path d="M64.3681 23.1012L62.3571 21.2473L60.5137 23.2698L62.5247 25.1237L64.3681 23.1012Z" fill="#73BB44"/>
<path d="M66.8253 58.3257L65.2612 56.8088L63.7529 58.4381L65.3729 59.8987L66.8253 58.3257Z" fill="#28B7BD"/>
<path d="M61.7423 58.3822L60.1782 56.9215L58.6699 58.4945L60.2899 60.0114L61.7423 58.3822Z" fill="#73BB44"/>
<path d="M63.9206 56.3595L62.6917 55.1797L61.5186 56.4718L62.7475 57.5954L63.9206 56.3595Z" fill="#2F89C9"/>
<path d="M59.4519 55.7415L58.167 54.6179L57.0498 55.8539L58.2788 57.0336L59.4519 55.7415Z" fill="#D1DA30"/>
<path d="M65.5408 54.3369L64.2559 53.1571L63.1387 54.3931L64.3676 55.5728L65.5408 54.3369Z" fill="#D1DA30"/>
<path d="M61.7986 54.3932L60.5696 53.2134L59.3965 54.4493L60.6255 55.6291L61.7986 54.3932Z" fill="#B2AFB3"/>
<path d="M63.3614 52.9328L62.5235 52.1462L61.6855 52.9889L62.5793 53.8316L63.3614 52.9328Z" fill="#213A71"/>
<path d="M60.1221 52.3146L59.2284 51.5281L58.4463 52.427L59.2842 53.2135L60.1221 52.3146Z" fill="#B2AFB3"/>
<path d="M52.6194 56.3386L49.9355 56.8795L50.4734 59.5786L53.1573 59.0377L52.6194 56.3386Z" fill="#2F89C9"/>
<path d="M56.144 55.7178L54.0078 56.1481L54.4357 58.2964L56.5718 57.866L56.144 55.7178Z" fill="#28B7BD"/>
<path d="M51.9662 52.7936L49.8301 53.2246L50.2586 55.3729L52.3948 54.9419L51.9662 52.7936Z" fill="#73BB44"/>
<path d="M55.0211 52.8923L53.3779 53.2233L53.7071 54.8758L55.3503 54.5448L55.0211 52.8923Z" fill="#D1DA30"/>
<path d="M57.4782 52.168L55.835 52.499L56.1641 54.1516L57.8073 53.8205L57.4782 52.168Z" fill="#28387C"/>
<path d="M54.4069 50.0347L52.7637 50.3657L53.0928 52.0183L54.736 51.6872L54.4069 50.0347Z" fill="#2F89C9"/>
<path d="M56.6513 50.3099L55.501 50.5414L55.7311 51.6983L56.8815 51.4668L56.6513 50.3099Z" fill="#73BB44"/>
<path d="M54.3582 47.8903L53.208 48.1223L53.4388 49.2791L54.589 49.047L54.3582 47.8903Z" fill="#B2AFB3"/>
<path d="M45.04 50.4045L46.1572 47.8764L43.6993 46.7528L42.582 49.2247L45.04 50.4045Z" fill="#28B7BD"/>
<path d="M48.5589 51.4718L49.4527 49.4493L47.4416 48.5504L46.5479 50.5729L48.5589 51.4718Z" fill="#D1DA30"/>
<path d="M46.8273 46.6406L47.7769 44.6181L45.7659 43.7192L44.8721 45.7417L46.8273 46.6406Z" fill="#2F89C9"/>
<path d="M48.5879 45.8437L47.8926 47.3771L49.4173 48.0763L50.1126 46.543L48.5879 45.8437Z" fill="#28B7BD"/>
<path d="M51.5192 51.9213L52.2454 50.4044L50.6813 49.6741L49.9551 51.2471L51.5192 51.9213Z" fill="#B2AFB3"/>
<path d="M47.7367 41.3431L47.041 42.8765L48.5657 43.5761L49.2614 42.0427L47.7367 41.3431Z" fill="#28387C"/>
<path d="M51.0707 46.7052L50.375 48.2385L51.8997 48.9381L52.5954 47.4048L51.0707 46.7052Z" fill="#59B75E"/>
<path d="M49.8329 43.1698L49.1367 44.7029L50.6611 45.403L51.3573 43.87L49.8329 43.1698Z" fill="#D1DA30"/>
<path d="M52.5245 46.472L53.0272 45.3484L51.91 44.8428L51.4072 45.9664L52.5245 46.472Z" fill="#213A71"/>
<path d="M52.0782 43.1574L52.5251 42.09L51.4637 41.5844L50.9609 42.6518L52.0782 43.1574Z" fill="#73BB44"/>
<path d="M43.5311 38.6065L45.8773 37.2582L44.5366 34.8987L42.1904 36.247L43.5311 38.6065Z" fill="#28B7BD"/>
<path d="M45.7098 41.5278L47.6091 40.4604L46.5477 38.5503L44.6484 39.6739L45.7098 41.5278Z" fill="#73BB44"/>
<path d="M47.162 36.6404L49.0613 35.573L47.9999 33.6628L46.1006 34.7303L47.162 36.6404Z" fill="#213A71"/>
<path d="M48.4473 39.3372L49.9556 38.4945L49.1177 36.9777L47.6094 37.8204L48.4473 39.3372Z" fill="#2F89C9"/>
<path d="M50.4026 35.1798L51.855 34.3371L51.0171 32.8765L49.5088 33.7192L50.4026 35.1798Z" fill="#73BB44"/>
<path d="M49.8995 41.4718L51.4077 40.6291L50.5698 39.1685L49.0615 40.0112L49.8995 41.4718Z" fill="#28B7BD"/>
<path d="M50.961 37.8765L52.4693 37.0338L51.6313 35.5731L50.123 36.4158L50.961 37.8765Z" fill="#D1DA30"/>
<path d="M51.8545 39.8427L52.9159 39.2247L52.3014 38.2135L51.2959 38.7753L51.8545 39.8427Z" fill="#B2AFB3"/>
<path d="M53.4182 36.8652L54.4796 36.3034L53.8651 35.236L52.8037 35.8539L53.4182 36.8652Z" fill="#73BB44"/>
<path d="M49.4628 25.4674L49.1719 28.2045L51.8935 28.4971L52.1845 25.76L49.4628 25.4674Z" fill="#73BB44"/>
<path d="M49.4593 29.6938L49.2275 31.8723L51.3937 32.1054L51.6255 29.9269L49.4593 29.6938Z" fill="#B2AFB3"/>
<path d="M53.4867 26.5753L53.2549 28.7538L55.4211 28.9869L55.6529 26.8084L53.4867 26.5753Z" fill="#28B7BD"/>
<path d="M52.9402 30.0101L52.7617 31.6859L54.428 31.8654L54.6065 30.1896L52.9402 30.0101Z" fill="#D1DA30"/>
<path d="M56.8643 27.7679L56.6865 29.4438L58.353 29.6227L58.5308 27.9467L56.8643 27.7679Z" fill="#2F89C9"/>
<path d="M52.8611 32.6041L52.6826 34.2799L54.3489 34.4594L54.5274 32.7836L52.8611 32.6041Z" fill="#28B7BD"/>
<path d="M55.8064 30.3033L55.6279 31.9791L57.2942 32.1586L57.4727 30.4828L55.8064 30.3033Z" fill="#73BB44"/>
<path d="M55.3445 32.924L55.2197 34.097L56.3862 34.2226L56.511 33.0495L55.3445 32.924Z" fill="#213A71"/>
<path d="M58.338 31.3927L58.2139 32.5659L59.3804 32.6907L59.5045 31.5176L58.338 31.3927Z" fill="#B2AFB3"/>
<path d="M71.0161 43.9437C70.7926 43.8314 70.4574 43.6628 69.9547 43.4943C69.2285 43.2696 68.223 43.101 66.994 43.2696C66.603 43.3258 66.1561 43.4381 65.7092 43.6067C65.6533 43.6067 65.5975 43.6628 65.5975 43.6628C65.374 43.7752 65.1506 43.8314 64.9271 43.9437C64.7595 44.0561 64.5361 44.1685 64.3685 44.2808C63.9216 44.5617 63.4747 44.8426 63.0837 45.1797C62.5809 42.2583 62.8602 39.5617 62.9719 38.2696C63.9775 38.9437 63.6981 40.7415 63.4747 41.2471C64.7595 39.7303 64.145 38.0449 63.8657 37.6516C64.0333 37.8201 64.2009 37.9887 64.3126 38.101C64.7037 38.6067 64.8712 39.1685 64.8712 39.6179C64.8712 39.8988 64.8712 40.1235 64.8712 40.2921C64.8712 40.3482 64.8712 40.4044 64.8712 40.4606C65.2064 39.7864 65.374 38.7752 64.8712 37.764C64.7037 37.4831 64.5361 37.2022 64.3126 36.9774C64.2568 36.9213 64.145 36.8089 64.0892 36.7527C64.145 36.7527 64.2568 36.8089 64.3126 36.8089C64.5361 36.8651 64.7037 36.9775 64.8712 37.0898C65.2623 37.3707 65.5416 37.764 65.6533 38.1572C65.765 38.4943 65.8209 38.8314 65.8209 39.1685C66.0444 38.2696 65.9326 37.5954 65.5975 37.146C65.374 36.8089 65.0947 36.528 64.8154 36.3595C64.5919 36.2471 64.4244 36.1348 64.2568 36.0786C64.145 36.0224 64.0333 36.0224 63.9775 36.0224C64.0892 36.0224 64.145 36.0224 64.2568 36.0224C64.4802 36.0224 64.6478 36.0224 64.8154 36.0786C65.1506 36.1348 65.4299 36.2471 65.5975 36.4156C65.9326 36.6404 66.1002 36.8651 66.1561 36.9774C66.1002 36.528 65.8768 36.1348 65.5975 35.8539C65.374 35.6291 65.0947 35.5168 64.8154 35.4044C64.6478 35.3482 64.4244 35.3482 64.2568 35.3482C63.9775 35.3482 63.754 35.4044 63.5306 35.4606C63.6981 35.1797 63.9775 35.0112 64.2568 34.955C64.4244 34.8988 64.6478 34.8988 64.8154 34.8988C64.983 34.8988 65.1506 34.955 65.2623 35.0112C65.0947 34.8426 64.9271 34.7303 64.7595 34.6179C64.5919 34.5055 64.3685 34.4494 64.2009 34.4494C63.6981 34.3932 63.1395 34.6179 62.8044 35.1235C62.7485 35.0112 62.6926 34.8426 62.6368 34.7303C62.4692 34.3932 62.3575 34.0561 62.3016 33.6628C62.2457 34.0561 62.134 34.3932 61.9664 34.7303C61.9106 34.8426 61.8547 35.0112 61.7988 35.1235C61.1843 34.1685 60.0112 34.2246 59.3409 35.0112C59.7878 34.7864 60.6816 34.8426 61.1285 35.5168C60.4581 35.2359 59.3968 35.4044 58.8381 36.0786C58.6147 36.3033 58.503 36.6404 58.4471 36.9774C58.503 36.9213 58.6147 36.6966 58.7823 36.528C59.1175 36.2471 59.6761 35.9662 60.6257 36.0224C60.123 36.0786 59.1175 36.528 58.7823 37.4831C58.6147 37.9325 58.5588 38.4943 58.7823 39.1685V39.1123C58.7823 38.2134 59.285 36.9774 60.5699 36.6965C59.1733 37.9325 59.285 39.5055 59.7319 40.4044C59.6761 39.7303 59.6202 38.4943 60.7375 37.5392C60.4581 37.9887 59.8437 39.6179 61.1285 41.1348C60.905 40.6291 60.6257 38.8314 61.6312 38.1572C61.743 39.5055 61.9664 42.2022 61.5195 45.0673C60.6816 44.4494 59.8437 43.8876 58.9499 43.5505C58.8382 43.4943 58.7264 43.4943 58.6147 43.4381C57.7209 43.1572 56.9388 43.0449 56.2126 43.101C55.0954 43.1572 54.2016 43.4943 53.7547 43.719C53.643 43.7752 53.5871 43.8314 53.5312 43.8314V43.8876C53.5871 43.8876 53.6988 43.8314 53.7547 43.8314C54.6485 43.6067 55.4306 43.4943 56.2126 43.6067C57.0506 43.6628 57.8885 43.9437 58.6147 44.2808C59.6761 44.7303 60.6257 45.4606 61.4637 46.1348C60.2347 47.2022 59.2292 48.2134 58.6147 48.6067C58.5588 48.6067 58.5588 48.6628 58.503 48.6628C58.3354 48.4381 58.1119 48.3258 57.8326 48.3819C57.6092 48.4381 57.3857 48.6628 57.3299 48.8876C57.274 49.1123 57.3299 49.337 57.4416 49.4494C57.7768 49.7864 58.1678 49.7864 58.6147 49.6179C59.4526 49.2808 60.514 48.1572 61.7988 46.9775C61.9106 46.8651 62.0223 46.7527 62.134 46.6966C62.2457 46.8089 62.3575 46.9213 62.4692 46.9775C63.0278 47.5392 63.5864 48.0449 64.0892 48.4943C64.3126 48.6628 64.4802 48.8314 64.6478 48.9999C64.9271 49.2246 65.2064 49.4494 65.4299 49.5617C65.9326 49.8426 66.3237 49.8426 66.7147 49.5055L66.7706 49.4494C66.8264 49.3932 66.9381 49.1123 66.8823 48.8876C66.8264 48.7752 66.7706 48.6628 66.7147 48.5505C66.603 48.4943 66.5471 48.3819 66.3795 48.3819C66.1002 48.3258 65.8209 48.4381 65.7092 48.6628C65.6533 48.6067 65.5416 48.5505 65.4299 48.4943C65.2064 48.3258 64.9271 48.101 64.6478 47.8201C64.4802 47.6516 64.2568 47.4831 64.0892 47.3145C63.6981 46.9774 63.2513 46.528 62.8044 46.1348C63.1954 45.7977 63.6423 45.4606 64.0892 45.1235C64.2568 45.0112 64.4802 44.8988 64.6478 44.7303C64.9271 44.5617 65.2064 44.4494 65.4299 44.2808C65.8209 44.0561 66.2678 43.8876 66.7147 43.7752C67.6085 43.4943 68.614 43.4381 69.6754 43.6067C70.2899 43.7752 70.625 43.8876 71.0161 43.9437C71.0161 43.9999 71.0161 43.9437 71.0161 43.9437Z" fill="#737A82"/>
<path d="M61.4628 72.7076H62.2449V65.6851H61.4628V72.7076ZM41.0173 71.9211L39.7884 68.9435C40.0677 68.6626 40.4028 68.4941 40.6821 68.3817C41.0173 68.2694 41.3525 68.2132 41.6877 68.2132C42.0228 68.2132 42.358 68.2694 42.7491 68.4379C43.0842 68.5503 43.3635 68.775 43.6428 68.9435L42.4139 71.9211H41.0173ZM36.7159 71.9211H35.9339C35.6546 71.9211 35.3753 71.8649 35.0959 71.8087C34.8166 71.7525 34.5932 71.584 34.4256 71.4716C34.258 71.3031 34.0904 71.1345 33.9787 70.9098C33.867 70.6851 33.8111 70.4042 33.8111 70.1233C33.8111 69.8424 33.867 69.5615 33.9787 69.3368C34.0904 69.1121 34.258 68.8873 34.4815 68.7188C34.7049 68.5503 34.9284 68.4379 35.1518 68.3255C35.4311 68.2132 35.6546 68.2132 35.9339 68.2132H36.7159V71.9211ZM58.3904 71.9211H57.1056C56.6587 71.9211 56.2677 71.8649 56.0442 71.7525C55.7649 71.6401 55.5973 71.4154 55.4297 71.1907C55.4856 70.966 55.4856 70.7413 55.4856 70.4604V67.9323H54.7035V70.5727C54.7035 71.0222 54.5918 71.3593 54.3684 71.6402C54.1449 71.9211 53.7539 72.0334 53.2511 72.0334C53.0277 72.0334 52.8042 71.9772 52.6366 71.9211C52.469 71.8649 52.3015 71.7525 52.1339 71.6402C52.0221 71.5278 51.9104 71.3593 51.7987 71.1907C51.7428 71.0222 51.687 70.8536 51.687 70.6851V67.9323H50.9049V70.6289C50.9049 70.8536 50.849 71.0784 50.7932 71.2469C50.7373 71.4154 50.6256 71.5278 50.5139 71.6402C50.4022 71.7525 50.2346 71.8087 50.067 71.8649C49.8994 71.921 49.7318 71.9211 49.5642 71.9211H48.056V67.8761H47.2739V71.9211H43.1959L44.5366 68.6626C44.3132 68.4941 44.0897 68.3255 43.8663 68.157C43.6428 67.9885 43.4194 67.8761 43.1401 67.7637C42.9166 67.6514 42.6373 67.539 42.4139 67.4828C42.1346 67.4267 41.9111 67.3705 41.6877 67.3705C41.4083 67.3705 41.1849 67.4267 40.9056 67.4828C40.6263 67.539 40.4028 67.6514 40.1235 67.7637C39.9001 67.8761 39.6208 68.0446 39.3973 68.157C39.1739 68.3255 38.9504 68.4941 38.727 68.6626L40.1235 71.9211H37.4421V67.3705H36.2132C35.7104 67.3705 35.3194 67.4267 34.8725 67.5952C34.4815 67.7076 34.1463 67.9323 33.867 68.157C33.5877 68.3817 33.3642 68.6626 33.1966 68.9997C33.029 69.3368 32.9732 69.6739 32.9732 70.0671C32.9732 70.5166 33.0849 70.9098 33.2525 71.2469C33.4201 71.584 33.6435 71.8649 33.9787 72.0334C34.258 72.2581 34.5932 72.4267 34.9842 72.4828C35.3753 72.5952 35.7663 72.6514 36.2132 72.6514H36.6601V72.8761C36.6601 73.2694 36.5484 73.6064 36.3249 73.775C36.1015 73.9435 35.7663 74.0559 35.3194 74.0559C35.0959 74.0559 34.8725 74.0559 34.649 73.9997C34.4815 73.9435 34.258 73.8873 33.9787 73.775L33.7553 74.5053C34.0346 74.6177 34.3139 74.6739 34.5373 74.73C34.7608 74.7862 34.9842 74.7862 35.2077 74.7862C35.9897 74.7862 36.4925 74.6177 36.8835 74.2244C37.2187 73.8873 37.3863 73.3817 37.3863 72.7637V72.5952H49.6201C50.0111 72.5952 50.3463 72.539 50.6256 72.3705C50.9049 72.202 51.1842 71.9772 51.3518 71.6963C51.5194 72.0334 51.7987 72.2581 52.1339 72.4267C52.469 72.5952 52.8601 72.7076 53.307 72.7076C53.7539 72.7076 54.1449 72.6514 54.4801 72.4828C54.8153 72.3143 55.0387 72.0896 55.2622 71.7525C55.318 71.8649 55.4297 71.9772 55.4856 72.0896C55.5973 72.202 55.7091 72.3143 55.8766 72.3705C56.0442 72.4829 56.2118 72.539 56.4353 72.5952C56.6028 72.6514 56.7704 72.6514 56.9939 72.6514H59.2284V65.6289H58.4463V71.9211H58.3904ZM128.33 71.584C128.218 71.8087 128.05 72.0334 127.883 72.2581C127.715 72.4267 127.492 72.5952 127.212 72.7076C126.989 72.8199 126.71 72.8761 126.375 72.8761C126.095 72.8761 125.816 72.8199 125.592 72.7076C125.369 72.5952 125.146 72.4267 124.978 72.2581C124.81 72.0896 124.643 71.8649 124.587 71.584C124.475 71.3592 124.419 71.0784 124.419 70.7975C124.419 70.5166 124.475 70.2357 124.587 70.0109C124.699 69.7862 124.81 69.5615 124.978 69.3368C125.146 69.1682 125.369 68.9997 125.592 68.8873C125.816 68.775 126.095 68.7188 126.375 68.7188C126.654 68.7188 126.933 68.775 127.212 68.8873C127.436 68.9997 127.659 69.1121 127.883 69.3368C128.05 69.5053 128.218 69.73 128.33 70.0109C128.441 70.2357 128.497 70.5166 128.497 70.8536C128.497 71.0784 128.441 71.3031 128.33 71.584ZM120.732 71.584C120.621 71.8087 120.453 72.0334 120.286 72.2581C120.118 72.4267 119.895 72.5952 119.615 72.7076C119.392 72.8199 119.112 72.8761 118.777 72.8761C118.498 72.8761 118.219 72.8199 117.995 72.7076C117.772 72.5952 117.548 72.4267 117.381 72.2581C117.213 72.0896 117.046 71.8649 116.934 71.584C116.822 71.3592 116.766 71.0784 116.766 70.7975C116.766 70.5166 116.822 70.2357 116.934 70.0109C117.046 69.7862 117.157 69.5615 117.325 69.3368C117.493 69.1682 117.716 68.9997 117.939 68.8873C118.163 68.775 118.442 68.7188 118.721 68.7188C119.001 68.7188 119.28 68.775 119.559 68.8873C119.783 68.9997 120.006 69.1121 120.23 69.3368C120.397 69.5053 120.565 69.73 120.677 70.0109C120.788 70.2357 120.844 70.5166 120.844 70.8536C120.9 71.0784 120.844 71.3031 120.732 71.584ZM101.795 71.9211H101.013C100.734 71.9211 100.455 71.8649 100.175 71.8087C99.8959 71.6963 99.6725 71.584 99.5049 71.4154C99.3373 71.2469 99.1697 71.0784 99.058 70.8536C98.9463 70.6289 98.8904 70.348 98.8904 70.0671C98.8904 69.7862 98.9463 69.5053 99.058 69.2806C99.1697 69.0559 99.3373 68.8312 99.5608 68.6626C99.7842 68.4941 100.008 68.3817 100.231 68.2694C100.51 68.157 100.734 68.157 101.013 68.157H101.795V71.9211ZM131.681 71.9211H129C129.168 71.584 129.224 71.1907 129.224 70.7413C129.224 70.348 129.168 69.9548 129 69.6177C128.832 69.2806 128.665 68.9435 128.386 68.7188C128.106 68.4379 127.827 68.2694 127.492 68.1008C127.157 67.9323 126.766 67.8761 126.375 67.8761C125.984 67.8761 125.648 67.9323 125.257 68.1008C124.922 68.2694 124.643 68.4379 124.364 68.7188C124.14 68.9997 123.917 69.2806 123.749 69.6177C123.581 69.9548 123.526 70.348 123.526 70.7413C123.526 70.966 123.526 71.1345 123.581 71.3593C123.637 71.5278 123.693 71.7525 123.749 71.9211H121.347C121.515 71.584 121.57 71.1907 121.57 70.7413C121.57 70.348 121.515 69.9548 121.347 69.6177C121.179 69.2806 121.012 68.9435 120.732 68.7188C120.453 68.4379 120.174 68.2694 119.839 68.1008C119.504 67.9323 119.113 67.8761 118.721 67.8761C118.33 67.8761 117.995 67.9323 117.604 68.1008C117.269 68.2694 116.99 68.4379 116.71 68.7188C116.487 68.9997 116.264 69.2806 116.096 69.6177C115.928 69.9548 115.872 70.348 115.872 70.7413C115.872 70.966 115.872 71.1345 115.928 71.3593C115.984 71.5278 116.04 71.7525 116.096 71.9211H113.638V65.6851H112.856V71.9211H110.398V70.7413C110.398 70.4604 110.342 70.1795 110.286 69.8986C110.23 69.6177 110.063 69.393 109.895 69.2244C109.672 68.9997 109.448 68.8312 109.225 68.7188C108.946 68.6064 108.666 68.5503 108.275 68.5503H104.812L106.264 65.7413H105.426L103.918 68.5503C103.918 68.7188 103.974 68.8873 104.03 68.9997C104.086 69.1121 104.141 69.2244 104.253 69.3368H108.219C108.443 69.3368 108.666 69.393 108.834 69.4491C109.001 69.5053 109.169 69.6177 109.281 69.73C109.392 69.8424 109.448 70.0109 109.504 70.1795C109.56 70.348 109.56 70.5166 109.56 70.7413V71.9211H102.354V67.3705H101.125C100.622 67.3705 100.175 67.4267 99.7842 67.5952C99.3932 67.7076 99.058 67.9323 98.7787 68.157C98.4994 68.3817 98.2759 68.6626 98.1084 68.9997C97.9408 69.3368 97.8849 69.6739 97.8849 70.0671C97.8849 70.5166 97.9966 70.9098 98.1642 71.2469C98.3318 71.584 98.5553 71.8649 98.8904 72.0896C99.1697 72.3143 99.5049 72.4828 99.8959 72.5952C100.287 72.7076 100.678 72.7637 101.125 72.7637H116.599C116.878 73.0446 117.157 73.2694 117.492 73.4379C117.828 73.6064 118.219 73.6626 118.61 73.6626C119.001 73.6626 119.392 73.6064 119.783 73.4379C120.118 73.2694 120.453 73.0446 120.732 72.7637H124.14C124.419 73.0446 124.699 73.2694 125.034 73.4379C125.369 73.6064 125.76 73.6626 126.151 73.6626C126.542 73.6626 126.933 73.6064 127.324 73.4379C127.659 73.2694 127.995 73.0446 128.274 72.7637H132.24V65.7413H131.458V71.9211H131.681ZM134.754 72.7076H135.536V65.6851H134.754V72.7076ZM77.3277 74.4491H78.1097V73.6626H77.3277V74.4491ZM84.9249 71.9211L83.6959 68.9435C83.9753 68.6626 84.3104 68.4941 84.5897 68.3817C84.9249 68.2694 85.2601 68.2132 85.5953 68.2132C85.9304 68.2132 86.2656 68.2694 86.6566 68.4379C86.9918 68.5503 87.2711 68.775 87.5504 68.9435L86.3215 71.9211H84.9249ZM90.4553 71.9211H87.1594L88.5001 68.6626C88.2766 68.4941 88.0532 68.3255 87.8297 68.157C87.6063 67.9885 87.3828 67.8761 87.1035 67.7637C86.8801 67.6514 86.6008 67.539 86.3773 67.4828C86.098 67.4267 85.8746 67.3705 85.6511 67.3705C85.3718 67.3705 85.1484 67.4267 84.869 67.4828C84.5897 67.539 84.3663 67.6514 84.1428 67.7637C83.9194 67.8761 83.6401 68.0446 83.4166 68.157C83.1932 68.3255 82.9697 68.4941 82.7463 68.6626L84.1428 71.9211H81.238V67.3705H80.4559V72.8199C80.4559 73.0446 80.4559 73.2132 80.4001 73.3817C80.4001 73.5503 80.3442 73.6626 80.2884 73.775C80.2325 73.8873 80.1766 73.9435 80.0649 73.9997C79.9532 74.0559 79.8415 74.0559 79.6739 74.0559C79.618 74.0559 79.5621 74.0559 79.5063 74.0559C79.4504 74.0559 79.3946 74.0559 79.2828 73.9997L79.0594 74.73C79.2828 74.7862 79.5063 74.8424 79.6739 74.8424C79.9532 74.8424 80.1766 74.7862 80.4001 74.73C80.5677 74.6177 80.7352 74.5053 80.847 74.3368C80.9587 74.1682 81.0704 73.9435 81.0704 73.7188C81.1263 73.4941 81.1263 73.2132 81.1263 72.8761V72.7076H91.1256V65.6851H90.3435V71.9211H90.4553ZM31.2973 68.1008C31.0739 67.8761 30.8504 67.7076 30.627 67.5952C30.3477 67.4828 30.0684 67.4267 29.6773 67.4267H29.1187V68.2132H29.789C29.9566 68.2132 30.1801 68.2694 30.3477 68.3255C30.5153 68.3817 30.6828 68.4941 30.7946 68.6626C30.9063 68.775 30.9621 68.9435 31.018 69.1121C31.0739 69.2806 31.0739 69.4491 31.0739 69.6739V71.9211H27.4428V72.7076H31.8559V69.6177C31.8559 69.3368 31.8001 68.9997 31.7442 68.775C31.5766 68.4941 31.4649 68.2694 31.2973 68.1008ZM74.4787 74.4491H75.2608V73.6626H74.4787V74.4491ZM69.7304 71.9211H68.9484C68.669 71.9211 68.3897 71.8649 68.1104 71.8087C67.8311 71.6963 67.6077 71.584 67.4401 71.4154C67.2725 71.2469 67.1049 71.0784 66.9932 70.8536C66.8815 70.6289 66.8256 70.348 66.8256 70.0671C66.8256 69.7862 66.8815 69.5053 66.9932 69.2806C67.1049 69.0559 67.2725 68.8312 67.4959 68.6626C67.7194 68.4941 67.9428 68.3817 68.1663 68.2694C68.4456 68.157 68.669 68.157 68.9484 68.157H69.7304V71.9211ZM78.1097 67.4267H77.3277V71.9772H74.367V67.4267H73.5849V71.9772H70.5125V67.4267H69.2835C68.7808 67.4267 68.3339 67.4828 67.9428 67.6514C67.5518 67.7637 67.2166 67.9885 66.9373 68.2132C66.658 68.4379 66.4346 68.7188 66.267 69.0559C66.0994 69.393 66.0435 69.73 66.0435 70.1233C66.0435 70.5727 66.1553 70.966 66.3228 71.3031C66.4904 71.6401 66.7139 71.921 67.0491 72.1458C67.3284 72.3705 67.6635 72.539 68.0546 72.6514C68.4456 72.7637 68.8366 72.8199 69.2835 72.8199H78.1097V67.4267ZM73.0821 74.4491H73.8642V73.6626H73.0821V74.4491ZM21.0187 65.6851H20.2366V66.4716H21.0187V65.6851ZM101.237 65.6851H100.455V66.4716H101.237V65.6851ZM70.5125 65.6851H69.7304V66.4716H70.5125V65.6851ZM25.6553 74.4491H26.4373V73.6626H25.6553V74.4491ZM69.1718 65.6851H68.3897V66.4716H69.1718V65.6851ZM22.4153 65.6851H21.6332V66.4716H22.4153V65.6851ZM24.2587 74.4491H25.0408V73.6626H24.2587V74.4491ZM21.6332 71.9211H20.8511C20.5718 71.9211 20.2925 71.8649 20.0132 71.8087C19.7339 71.6963 19.5104 71.584 19.3428 71.4154C19.1753 71.2469 19.0077 71.0784 18.8959 70.8536C18.7842 70.6289 18.7284 70.348 18.7284 70.0671C18.7284 69.7862 18.7842 69.5053 18.8959 69.2806C19.0077 69.0559 19.1752 68.8312 19.3987 68.6626C19.6221 68.4941 19.8456 68.3817 20.069 68.2694C20.3484 68.157 20.5718 68.157 20.8511 68.157H21.6332V71.9211ZM26.2697 67.4267H25.4877V71.9772H22.4153V67.4267H21.1863C20.6835 67.4267 20.2366 67.4828 19.8456 67.6514C19.4546 67.7637 19.1194 67.9885 18.8401 68.2132C18.5608 68.4379 18.3373 68.7188 18.1697 69.0559C18.0021 69.393 17.9463 69.73 17.9463 70.1233C17.9463 70.5727 18.058 70.966 18.2256 71.3031C18.3932 71.6401 18.6166 71.921 18.9518 72.1458C19.2311 72.3705 19.5663 72.539 19.9573 72.6514C20.3484 72.7637 20.7394 72.8199 21.1863 72.8199H26.2697V67.4267ZM93.5277 72.7076H94.3097V65.6851H93.5277V72.7076ZM102.577 65.6851H101.795V66.4716H102.577V65.6851Z" fill="#AEAAAE"/>
<path d="M18.7285 77.8762H19.6782V80.6852L22.3595 77.8762H23.5326L21.2423 80.2358L23.6444 83.438H22.4713L20.572 80.9099L19.6782 81.8088V83.438H18.7285V77.8762Z" fill="#AEAAAE"/>
<path d="M25.5436 77.8762H24.5381V83.438H25.5436V77.8762Z" fill="#AEAAAE"/>
<path d="M27.0518 77.8762H27.9455L30.9062 81.6964V77.8762H31.8559V83.438H31.0738L28.0014 79.4493V83.438H27.0518V77.8762Z" fill="#AEAAAE"/>
<path d="M33.085 80.6853C33.085 79.1122 34.2581 77.7639 35.9339 77.7639C36.8836 77.7639 37.4981 78.0448 38.0567 78.4943L37.4422 79.2246C36.9953 78.8313 36.6043 78.6066 35.8781 78.6066C34.8725 78.6066 34.0905 79.5055 34.0905 80.5729C34.0905 81.6965 34.8726 82.5954 35.9898 82.5954C36.4926 82.5954 36.9953 82.4268 37.3305 82.1459V81.0785H35.9339V80.2358H38.2801V82.5954C37.7215 83.0448 36.9394 83.4381 35.9339 83.4381C34.2581 83.5504 33.085 82.3145 33.085 80.6853Z" fill="#AEAAAE"/>
<path d="M41.7436 82.5391C42.9167 82.5391 43.6988 81.7526 43.6988 80.629C43.6988 79.5616 42.9167 78.7189 41.7436 78.7189H40.6264V82.5391H41.7436ZM39.6768 77.8762H41.7436C43.4754 77.8762 44.7043 79.056 44.7043 80.629C44.7043 82.2021 43.4754 83.438 41.7436 83.438H39.6768V77.8762Z" fill="#AEAAAE"/>
<path d="M50.4018 80.6853C50.4018 79.5617 49.6197 78.6628 48.5025 78.6628C47.3853 78.6628 46.6032 79.5617 46.6032 80.6291C46.6032 81.6965 47.3853 82.5954 48.5025 82.5954C49.6197 82.6516 50.4018 81.7527 50.4018 80.6853ZM45.5977 80.6853C45.5977 79.1122 46.8266 77.7639 48.5025 77.7639C50.2342 77.7639 51.4073 79.0561 51.4073 80.6291C51.4073 82.2021 50.1784 83.4943 48.5025 83.4943C46.7708 83.5504 45.5977 82.2583 45.5977 80.6853Z" fill="#AEAAAE"/>
<path d="M52.6367 77.8762H53.6981L55.374 80.5167L57.0498 77.8762H58.1112V83.438H57.1057V79.4493L55.374 82.0897H55.3181L53.5864 79.4493V83.438H52.6367V77.8762Z" fill="#AEAAAE"/>
<path d="M66.4897 80.6853C66.4897 79.5617 65.7076 78.6628 64.5904 78.6628C63.4731 78.6628 62.6911 79.5617 62.6911 80.6291C62.6911 81.6965 63.4731 82.5954 64.5904 82.5954C65.7076 82.6516 66.4897 81.7527 66.4897 80.6853ZM61.6855 80.6853C61.6855 79.1122 62.9145 77.7639 64.5904 77.7639C66.3221 77.7639 67.4952 79.0561 67.4952 80.6291C67.4952 82.2021 66.2662 83.4943 64.5904 83.4943C62.8586 83.5504 61.6855 82.2583 61.6855 80.6853Z" fill="#AEAAAE"/>
<path d="M68.7246 77.8762H72.8584V78.7189H69.6743V80.292H72.5232V81.1346H69.6743V83.438H68.7246V77.8762Z" fill="#AEAAAE"/>
<path d="M75.9307 82.5956L76.5451 81.8653C77.1038 82.3147 77.6065 82.5956 78.2769 82.5956C78.8913 82.5956 79.2824 82.3147 79.2824 81.8653C79.2824 81.472 79.0589 81.2473 78.0534 81.0226C76.8803 80.7417 76.21 80.4046 76.21 79.3372C76.21 78.3822 76.992 77.708 78.1093 77.708C78.9472 77.708 79.5617 77.9327 80.1203 78.3822L79.6176 79.1125C79.1148 78.7192 78.612 78.5507 78.1093 78.5507C77.5507 78.5507 77.2155 78.8316 77.2155 79.2249C77.2155 79.6743 77.4948 79.8428 78.5562 80.1237C79.7293 80.4046 80.3438 80.8541 80.3438 81.753C80.3438 82.8204 79.5058 83.4383 78.3327 83.4383C77.3831 83.4945 76.601 83.2136 75.9307 82.5956Z" fill="#AEAAAE"/>
<path d="M84.6455 81.1911L83.6958 78.9439L82.7462 81.1911H84.6455ZM83.249 77.8203H84.1427L86.6007 83.4383H85.5393L84.9807 82.09H82.3552L81.7965 83.4383H80.791L83.249 77.8203Z" fill="#AEAAAE"/>
<path d="M87.1592 81.0785V77.8762H88.1647V81.0785C88.1647 82.0897 88.7233 82.6515 89.5612 82.6515C90.455 82.6515 90.9578 82.1459 90.9578 81.0785V77.8762H91.9633V81.0223C91.9633 82.7077 91.0136 83.5504 89.5612 83.5504C88.1088 83.5504 87.1592 82.7077 87.1592 81.0785Z" fill="#AEAAAE"/>
<path d="M95.4273 82.5391C96.6004 82.5391 97.3824 81.7526 97.3824 80.629C97.3824 79.5616 96.6004 78.7189 95.4273 78.7189H94.31V82.5391H95.4273ZM93.3604 77.8762H95.4273C97.159 77.8762 98.3879 79.056 98.3879 80.629C98.3879 82.2021 97.159 83.438 95.4273 83.438H93.3604V77.8762Z" fill="#AEAAAE"/>
<path d="M100.623 77.8762H99.6172V83.438H100.623V77.8762Z" fill="#AEAAAE"/>
<path d="M107.885 81.1911L106.935 78.9439L105.985 81.1911H107.885ZM106.488 77.8203H107.382L109.84 83.4383H108.779L108.22 82.09H105.594L105.036 83.4383H104.03L106.488 77.8203Z" fill="#AEAAAE"/>
<path d="M113.136 80.629C113.862 80.629 114.309 80.2358 114.309 79.674C114.309 79.056 113.862 78.7751 113.136 78.7751H111.739V80.629H113.136ZM110.734 77.8762H113.192C113.918 77.8762 114.42 78.1009 114.812 78.438C115.091 78.7189 115.258 79.1684 115.258 79.6178C115.258 80.5167 114.7 81.0785 113.918 81.3032L115.426 83.438H114.253L112.912 81.4717H111.683V83.438H110.678V77.8762H110.734Z" fill="#AEAAAE"/>
<path d="M120.062 81.1911L119.112 78.9439L118.162 81.1911H120.062ZM118.609 77.8203H119.503L121.961 83.4383H120.899L120.341 82.09H117.771L117.213 83.4383H116.207L118.609 77.8203Z" fill="#AEAAAE"/>
<path d="M125.481 82.5391C126.151 82.5391 126.542 82.2583 126.542 81.7526C126.542 81.3032 126.151 81.0223 125.425 81.0223H123.861V82.5391H125.481ZM125.201 80.1796C125.816 80.1796 126.263 79.9549 126.263 79.4493C126.263 78.9998 125.928 78.7189 125.257 78.7189H123.861V80.1796H125.201ZM122.911 77.8762H125.425C126.039 77.8762 126.542 78.0448 126.877 78.3818C127.101 78.6066 127.268 78.9436 127.268 79.2807C127.268 79.9549 126.877 80.292 126.486 80.5167C127.157 80.7414 127.604 81.1347 127.604 81.865C127.604 82.8762 126.766 83.3818 125.537 83.3818H122.967V77.8762H122.911Z" fill="#AEAAAE"/>
<path d="M129.782 77.8762H128.776V83.438H129.782V77.8762Z" fill="#AEAAAE"/>
<path d="M134.53 81.1911L133.581 78.9439L132.631 81.1911H134.53ZM133.134 77.8203H134.028L136.485 83.4383H135.424L134.865 82.09H132.24L131.681 83.4383H130.676L133.134 77.8203Z" fill="#AEAAAE"/>
<path d="M1.41096 0.23584H0.908203V82.7077H1.41096V0.23584Z" fill="black"/>
</svg>
