<svg width="98" height="52" viewBox="0 0 98 52" fill="none" xmlns="http://www.w3.org/2000/svg">
<g clip-path="url(#clip0)">
<path d="M35.8582 23.4669H30.7356C28.8206 23.4669 27.2886 21.9375 27.2886 20.0257V11.8051C27.2886 8.88971 29.6823 6.5 32.6027 6.5H35.9061C37.8211 6.5 39.3531 8.02941 39.3531 9.94118V20.0257C39.3052 21.9375 37.7732 23.4669 35.8582 23.4669ZM32.5548 8.41176C30.6877 8.41176 29.1557 9.94118 29.1557 11.8051V20.0257C29.1557 20.886 29.8259 21.5551 30.6877 21.5551H35.8582C36.7199 21.5551 37.3902 20.886 37.3902 20.0257V9.98897C37.3902 9.12868 36.7199 8.45956 35.8582 8.45956H32.5548V8.41176Z" fill="#3A3A3A"/>
<path d="M9.00042 27.6251H5.0268C2.3458 27.6251 0.143555 25.4265 0.143555 22.7501V10.6581C0.143555 8.41182 2.01068 6.54785 4.2608 6.54785H8.95255C10.9154 6.54785 12.4953 8.12506 12.4953 10.0846V24.0883C12.5432 26.0001 10.9154 27.6251 9.00042 27.6251ZM4.2608 8.50741C3.06393 8.50741 2.10643 9.46329 2.10643 10.6581V22.7501C2.10643 24.3273 3.39905 25.6655 5.0268 25.6655H9.00042C9.86217 25.6655 10.5803 24.9486 10.5803 24.0883V10.0368C10.5803 9.17653 9.86217 8.45962 9.00042 8.45962H4.2608V8.50741Z" fill="#3A3A3A"/>
<path d="M38.4914 31.8309C38.2999 31.8309 38.1084 31.8309 38.1084 31.8309C36.8158 31.7354 27.3366 31.6876 4.06934 31.8309C4.06934 31.4964 4.06934 31.2096 4.06934 30.8751C4.06934 30.5405 4.06934 30.2537 4.11721 29.9192C28.0068 29.8714 37.2945 29.8714 38.1563 29.9192C38.1563 29.9192 38.2042 29.9192 38.252 29.9192C38.4435 29.9192 39.9277 30.0626 40.9809 28.9155C41.7948 28.0074 41.7948 26.9081 41.7469 26.5736V26.5258L41.7948 10.1324C41.699 9.17654 41.9863 8.17286 42.6087 7.45595C43.1832 6.78683 43.9492 6.45227 44.763 6.45227C45.4812 6.45227 46.1993 6.83462 46.7738 7.45595C47.3962 8.12506 47.6834 9.08095 47.5877 9.98903V24.0405C47.5877 24.0405 47.5877 24.0405 47.5877 24.0883C47.5877 24.0883 47.5877 24.1361 47.5877 24.1839C47.5877 24.6618 47.8749 25.0442 48.0185 25.1876C48.4973 25.6655 49.1197 25.6655 49.2154 25.6655H49.2633H52.4709C52.6624 25.6655 52.9496 25.6177 53.2369 25.4265C53.8114 24.9964 53.7156 24.0883 53.7156 24.0883C53.6678 23.5626 54.0029 23.1324 54.5295 23.0368C55.0561 22.989 55.5349 23.3236 55.5828 23.8493C55.6306 24.0405 55.7743 25.8089 54.3859 26.9081C53.7156 27.4339 52.9975 27.5295 52.4709 27.5295H49.3112C48.9282 27.5295 47.6834 27.4817 46.7259 26.5258C46.4865 26.2868 45.7684 25.4743 45.7205 24.2317C45.7205 24.1839 45.7205 24.0883 45.7205 24.0405V9.98903C45.7205 9.94124 45.7205 9.94124 45.7205 9.89345C45.7684 9.4633 45.6248 9.03315 45.3375 8.74639C45.146 8.50742 44.9067 8.41183 44.7152 8.41183C44.5237 8.41183 44.2364 8.55521 44.0449 8.79418C43.7577 9.12874 43.614 9.55889 43.7098 10.0368C43.7098 10.0846 43.7098 10.1324 43.7098 10.1802L43.5662 26.478C43.614 27.1471 43.5662 28.7721 42.3214 30.1581C41.0288 31.592 39.3532 31.8309 38.4914 31.8309Z" fill="#3A3A3A"/>
<path d="M13.7398 27.5294C13.1174 27.5294 12.4951 27.3382 11.9684 27.0037C10.7237 26.1434 10.6758 24.7573 10.6279 24.4706V21.6029C10.6279 21.0772 11.0588 20.647 11.5854 20.647C12.1121 20.647 12.5429 21.0772 12.5429 21.6029V24.4706C12.5429 24.5662 12.5908 25.1875 13.0696 25.522C13.3568 25.7132 13.644 25.7132 13.7877 25.7132C13.7877 25.7132 13.7877 25.7132 13.8355 25.7132H35.475C35.7623 25.6654 36.1453 25.6176 36.5283 25.3309C37.5336 24.614 37.4379 23.0845 37.4379 23.0367V22.989V19.8345C37.4379 19.3088 37.8688 18.8787 38.3954 18.8787C38.922 18.8787 39.3529 19.3088 39.3529 19.8345V22.9412C39.3529 23.3235 39.4008 25.5698 37.6294 26.8603C37.0549 27.2904 36.3368 27.5294 35.6186 27.5772C35.5708 27.5772 35.5708 27.5772 35.5229 27.5772H13.8355C13.7877 27.5294 13.7877 27.5294 13.7398 27.5294Z" fill="#3A3A3A"/>
<path d="M81.8659 33.9338C76.9826 33.9338 73.2484 31.4008 71.3813 29.8236C71.3813 29.8236 71.3334 29.8236 71.3334 29.7758C70.7589 29.2022 70.2801 28.5331 69.945 27.8162C69.3705 26.6213 69.3226 25.4743 69.4184 24.7096V19.6434C69.4184 19.5956 69.4184 19.5956 69.4184 19.5478C69.4663 19.1655 69.7057 17.8272 70.9025 16.9669C71.6206 16.4412 72.3866 16.2978 72.9133 16.2978C72.9611 16.2978 72.9611 16.2978 72.9611 16.2978H76.456C76.9826 16.2978 77.4135 16.728 77.4135 17.2537C77.4135 17.7794 76.9826 18.2096 76.456 18.2096H72.9611C72.7218 18.2096 72.3388 18.2574 72.0036 18.5441C71.477 18.9265 71.3334 19.5478 71.2855 19.7868V24.853C71.2855 24.9008 71.2855 24.9008 71.2855 24.9486C71.2376 25.4743 71.2855 26.2868 71.6685 27.1471C71.9079 27.6728 72.243 28.103 72.626 28.4853C74.3974 29.9669 78.0359 32.4522 82.6798 32.1177C89.7652 31.6397 95.8932 24.853 96.1326 17.3493C96.2284 14.625 95.5102 11.9008 94.1219 9.46325C92.6856 6.97796 90.5791 4.92281 88.0417 3.63237C82.4404 0.716932 76.5996 2.05517 72.9611 4.2537C71.9558 4.87502 66.881 8.22061 65.9714 14.0515C65.8278 14.9118 65.8278 15.7721 65.8757 16.6324C65.9235 17.1581 65.5405 17.5883 65.0139 17.6361C64.4873 17.6838 64.0564 17.3015 64.0085 16.7758C63.9607 15.7721 63.9607 14.7684 64.1522 13.7647C65.1575 7.12134 70.8546 3.34561 72.0036 2.67649C76.073 0.191196 82.6798 -1.29042 88.9514 2.00737C94.6485 4.97061 98.1912 11.0405 98.0476 17.4449C97.9519 21.5552 96.2762 25.5221 93.4037 28.6765C90.4834 31.8787 86.7491 33.7427 82.8713 34.0294C82.4883 33.9338 82.201 33.9338 81.8659 33.9338Z" fill="#3A3A3A"/>
<path d="M57.4501 27.5773C57.4022 27.5773 57.3543 27.5773 57.3065 27.5773C56.8277 27.4817 55.5351 27.1949 54.6255 26.0001C53.7158 24.9008 53.668 23.6581 53.668 23.1802V10.5148C53.668 10.0846 53.668 8.36403 55.0085 7.26476C55.4393 6.9302 55.966 6.69123 56.5405 6.54785C56.5883 6.54785 56.6362 6.54785 56.732 6.54785H61.5673C62.094 6.54785 62.5248 6.978 62.5248 7.50373C62.5248 8.02947 62.094 8.45962 61.5673 8.45962H56.8277C56.5883 8.50741 56.349 8.603 56.1575 8.79417C55.4393 9.3677 55.4872 10.4192 55.4872 10.5148V10.5626V23.2758V23.3236C55.4872 23.6103 55.4872 24.2795 56.0138 24.9486C56.4926 25.5699 57.1628 25.7611 57.4501 25.8089L61.6152 25.7611C61.9025 25.7133 62.1897 25.6655 62.3812 25.5221C63.6738 24.853 63.8653 22.989 63.9132 22.7023L63.9611 15.2942C63.9611 14.7684 64.392 14.3383 64.8707 14.3383C65.3973 14.3383 65.8282 14.7684 65.8282 15.2464L65.8761 22.6067V22.6545C65.8282 23.1802 65.541 25.9045 63.3387 27.0515C62.86 27.2905 62.3812 27.4339 61.8546 27.4817C61.8067 27.4817 61.8067 27.4817 61.7588 27.4817L57.4501 27.5773C57.498 27.5773 57.498 27.5773 57.4501 27.5773Z" fill="#3A3A3A"/>
<path d="M76.8874 18.6875C76.4087 18.6875 75.9778 18.3052 75.9299 17.8272C75.6905 14.3383 77.7013 11.1839 80.8132 10.0846C84.691 8.69856 87.9944 11.4228 88.138 11.5184C88.521 11.853 88.5689 12.4265 88.2338 12.8566C87.8987 13.239 87.3242 13.2868 86.8933 12.9522C86.8454 12.9522 84.308 10.8015 81.4355 11.853C79.0897 12.6655 77.6055 15.103 77.797 17.7316C77.8449 18.2574 77.4619 18.6875 76.9353 18.7353C76.9353 18.6875 76.9353 18.6875 76.8874 18.6875Z" fill="#3A3A3A"/>
<path d="M83.3021 24.3272C82.7276 24.3272 82.1531 24.2794 81.5307 24.0882C78.5625 23.3235 76.3123 20.5515 75.9293 17.3015C75.8815 16.7757 76.2166 16.3456 76.7432 16.25C77.2698 16.2022 77.7007 16.5368 77.7965 17.0625C78.0837 19.5956 79.7593 21.6985 82.0095 22.2721C84.2596 22.8456 86.1267 21.7463 86.6533 21.364C87.0842 21.0772 87.6587 21.1728 87.9459 21.603C88.2332 22.0331 88.1374 22.6066 87.7066 22.8934C87.2278 23.2757 85.5043 24.3272 83.3021 24.3272Z" fill="#3A3A3A"/>
<path d="M87.707 14.1949C88.7381 14.1949 89.5741 13.3603 89.5741 12.3309C89.5741 11.3014 88.7381 10.4669 87.707 10.4669C86.6758 10.4669 85.8398 11.3014 85.8398 12.3309C85.8398 13.3603 86.6758 14.1949 87.707 14.1949Z" fill="#008556"/>
<path d="M87.707 23.9926C88.7381 23.9926 89.5741 23.1581 89.5741 22.1286C89.5741 21.0992 88.7381 20.2646 87.707 20.2646C86.6758 20.2646 85.8398 21.0992 85.8398 22.1286C85.8398 23.1581 86.6758 23.9926 87.707 23.9926Z" fill="#008556"/>
<path d="M2.48921 31.8308C2.99159 31.8308 3.39884 31.4243 3.39884 30.9227C3.39884 30.4212 2.99159 30.0146 2.48921 30.0146C1.98684 30.0146 1.57959 30.4212 1.57959 30.9227C1.57959 31.4243 1.98684 31.8308 2.48921 31.8308Z" fill="#008556"/>
<path d="M4.83535 30.8751C4.83535 32.2133 3.73422 33.2648 2.4416 33.2648C1.14898 33.2648 0.0478516 32.1655 0.0478516 30.8751C0.0478516 29.5368 1.14898 28.4854 2.4416 28.4854C3.73422 28.4854 4.83535 29.5368 4.83535 30.8751ZM3.92572 30.8751C3.92572 30.0626 3.25547 29.4412 2.48947 29.4412C1.72347 29.4412 1.05323 30.1104 1.05323 30.8751C1.05323 31.6398 1.72347 32.3089 2.48947 32.3089C3.25547 32.3089 3.92572 31.6876 3.92572 30.8751Z" fill="#3A3A3A"/>
<path d="M33.5122 4.73163C34.6492 4.73163 35.5709 3.81151 35.5709 2.67649C35.5709 1.54146 34.6492 0.621338 33.5122 0.621338C32.3753 0.621338 31.4536 1.54146 31.4536 2.67649C31.4536 3.81151 32.3753 4.73163 33.5122 4.73163Z" fill="#008556"/>
<path d="M3.3511 4.73163C4.48805 4.73163 5.40973 3.81151 5.40973 2.67649C5.40973 1.54146 4.48805 0.621338 3.3511 0.621338C2.21416 0.621338 1.29248 1.54146 1.29248 2.67649C1.29248 3.81151 2.21416 4.73163 3.3511 4.73163Z" fill="#008556"/>
<path d="M9.33548 4.73163C10.4724 4.73163 11.3941 3.81151 11.3941 2.67649C11.3941 1.54146 10.4724 0.621338 9.33548 0.621338C8.19853 0.621338 7.27686 1.54146 7.27686 2.67649C7.27686 3.81151 8.19853 4.73163 9.33548 4.73163Z" fill="#008556"/>
<path d="M6.36723 48.6066C6.51085 48.3676 6.65448 48.0331 6.84598 47.6507C7.03748 47.2206 7.27685 46.7904 7.51623 46.3125C7.7556 45.8345 7.99498 45.3566 8.23435 44.8309C8.47372 44.3051 8.7131 43.8272 8.95247 43.397C9.19185 42.9669 9.38335 42.5368 9.52697 42.25C9.71847 41.9154 9.81422 41.6765 9.90997 41.5331C10.0057 41.3419 10.1493 41.1985 10.293 41.0551C10.4366 40.9118 10.676 40.8162 11.059 40.8162C11.2983 40.8162 11.442 40.864 11.5377 40.9117C11.6335 40.9595 11.7292 41.0073 11.7771 41.0551C11.8728 42.9191 12.0165 44.7831 12.1122 46.5515C12.208 48.3676 12.3037 50.1838 12.3995 52.0478H11.2983C11.2983 51.7132 11.2505 51.2353 11.2026 50.7095C11.1547 50.1838 11.1547 49.6103 11.1068 48.9412C11.059 48.3198 11.059 47.6507 11.0111 46.9816C10.9632 46.3125 10.9153 45.6434 10.9153 45.022C10.8675 44.4007 10.8675 43.8272 10.8196 43.3015C10.7717 42.7757 10.7717 42.3456 10.7238 42.011C10.676 42.1544 10.5323 42.3934 10.3408 42.7757C10.1493 43.1581 9.95785 43.5882 9.6706 44.0662C9.43122 44.5441 9.14397 45.1176 8.85672 45.6434C8.56947 46.2169 8.28222 46.7426 8.04285 47.2684C7.7556 47.7941 7.51623 48.272 7.32473 48.7022C7.08535 49.1323 6.94173 49.4191 6.84598 49.6581H5.69698C5.60123 49.4669 5.4576 49.1801 5.2661 48.8456C5.0746 48.511 4.8831 48.0809 4.64373 47.6507C4.40435 47.2206 4.16498 46.6948 3.92561 46.2169C3.68623 45.6912 3.39898 45.2132 3.15961 44.6875C2.92023 44.2095 2.68086 43.7316 2.44148 43.2537C2.20211 42.8235 2.01061 42.4412 1.81911 42.1066C1.77123 42.8713 1.72336 43.6838 1.67548 44.5441C1.62761 45.4044 1.57973 46.2169 1.53186 47.0772C1.48398 47.9375 1.43611 48.7978 1.38823 49.6103C1.34036 50.4706 1.29248 51.2831 1.29248 52.0478H0.287109C0.382859 50.3272 0.478609 48.5588 0.574359 46.7904C0.670109 45.022 0.765859 43.2537 0.861609 41.5331C0.861609 41.2941 0.957359 41.1029 1.14886 41.0073C1.29248 40.864 1.48398 40.8162 1.67548 40.8162C1.91486 40.8162 2.10636 40.864 2.24998 40.9117C2.39361 41.0073 2.48936 41.0551 2.58511 41.1507C2.63298 41.2463 2.72873 41.4375 2.92023 41.772C3.11173 42.1066 3.30323 42.489 3.54261 42.9669C3.78198 43.4448 4.02135 43.9706 4.3086 44.4963C4.59585 45.0698 4.8831 45.5956 5.12248 46.1213C5.40973 46.647 5.6491 47.125 5.8406 47.5551C6.07998 47.9853 6.2236 48.3676 6.36723 48.6066Z" fill="#3A3A3A"/>
<path d="M17.9053 52.0001C18.5276 50.2795 19.2458 48.5589 19.9639 46.7905C20.682 45.0699 21.448 43.3015 22.3098 41.5332C22.5013 41.1508 22.6928 40.864 22.8843 40.7207C23.0758 40.5773 23.3151 40.4817 23.6024 40.4817C23.7939 40.4817 23.9854 40.5295 24.129 40.5773C24.2726 40.6251 24.3684 40.6729 24.3684 40.7207C24.5599 41.0552 24.7993 41.5332 25.0865 42.1545C25.3738 42.7758 25.661 43.4449 25.9961 44.2096C26.3313 44.9743 26.6664 45.739 27.0015 46.5515C27.3366 47.364 27.6718 48.1288 27.959 48.8935C28.2463 49.6104 28.4856 50.2795 28.725 50.8052C28.9644 51.3788 29.108 51.7611 29.2038 52.0001H27.9111C27.8633 51.9045 27.7675 51.6655 27.6718 51.3788C27.576 51.092 27.4324 50.7574 27.2888 50.3751C27.1451 49.9927 27.0015 49.6582 26.9058 49.3236C26.7621 48.989 26.6664 48.7501 26.5706 48.5589H20.3469C20.0596 49.3236 19.7724 49.9927 19.533 50.614C19.2936 51.2354 19.1021 51.7133 19.0064 52.0001H17.9053ZM23.5066 41.4854C23.0279 42.3935 22.597 43.3971 22.1183 44.4486C21.6395 45.5001 21.1608 46.5515 20.7299 47.6508H26.1876C25.9961 47.1729 25.7568 46.5993 25.5174 45.978C25.278 45.3567 25.0386 44.7832 24.7514 44.2096C24.512 43.6361 24.2726 43.1104 24.0333 42.6324C23.7939 42.0589 23.6503 41.7243 23.5066 41.4854Z" fill="#3A3A3A"/>
<path d="M41.5074 47.2206C41.7946 47.6029 42.0819 47.9853 42.3212 48.4154C42.6085 48.8456 42.8479 49.2757 43.0872 49.6581C43.3266 50.0882 43.566 50.4706 43.8054 50.9007C44.0447 51.2831 44.2362 51.6654 44.3799 52H43.0872C42.9436 51.761 42.8 51.4265 42.5606 50.9963C42.3212 50.5662 42.0819 50.136 41.7946 49.6581C41.5074 49.2279 41.268 48.7978 40.9807 48.3676C40.7414 47.9853 40.502 47.6507 40.3584 47.4596C40.119 47.5074 39.9275 47.5074 39.736 47.5074C39.5445 47.5074 39.353 47.5074 39.1615 47.5074C38.5391 47.5074 38.0125 47.5074 37.5816 47.4596C37.1507 47.4118 36.8156 47.4118 36.5762 47.364V51.9522H35.4272V41.4375C35.4272 41.0551 35.6666 40.8162 36.0975 40.7684C36.2411 40.7684 36.5284 40.7206 36.9592 40.6728C37.438 40.625 38.0604 40.625 38.8742 40.625C39.5924 40.625 40.2626 40.6728 40.9329 40.8162C41.5552 40.9596 42.0819 41.1507 42.5606 41.3897C43.0394 41.6765 43.3745 42.011 43.6139 42.4412C43.8532 42.8713 43.9969 43.3971 43.9969 44.0662C43.9969 44.5441 43.949 44.9265 43.8054 45.261C43.6617 45.5956 43.5181 45.9301 43.2787 46.1691C43.0394 46.4081 42.8 46.6471 42.5127 46.7904C42.1776 46.9816 41.8425 47.125 41.5074 47.2206ZM42.8 44.0662C42.8 43.6838 42.7521 43.3493 42.6085 43.0625C42.4649 42.7757 42.2255 42.489 41.9382 42.2978C41.6031 42.0588 41.2201 41.9154 40.6935 41.7721C40.2147 41.6287 39.5924 41.5809 38.8264 41.5809C38.1082 41.5809 37.5816 41.5809 37.2465 41.6287C36.8635 41.6765 36.672 41.6765 36.5284 41.7243V46.4559C36.7199 46.5037 37.0071 46.5037 37.3901 46.5515C37.7731 46.5993 38.2519 46.5993 38.7785 46.5993C40.2147 46.5993 41.2201 46.3603 41.8425 45.9301C42.5127 45.5 42.8 44.8787 42.8 44.0662Z" fill="#3A3A3A"/>
<path d="M50.3169 52V41.3897C50.3169 41.1985 50.3648 41.0551 50.4605 40.9595C50.5563 40.864 50.6999 40.8162 50.9393 40.8162C51.035 40.8162 51.1308 40.8162 51.2265 40.864C51.3223 40.9117 51.3701 40.9117 51.4659 40.9595V52.0478H50.3169V52Z" fill="#008556"/>
<path d="M59.3648 46.8861V52H58.168V41.4375C58.168 41.2464 58.2158 41.103 58.3595 40.9596C58.5031 40.8162 58.6467 40.7684 58.934 40.7684H65.3492C65.4928 40.7684 65.6365 40.8162 65.7322 40.9118C65.828 41.0074 65.8758 41.103 65.8758 41.2942C65.8758 41.4375 65.8758 41.5331 65.828 41.6287C65.7801 41.7243 65.7801 41.7721 65.7322 41.8199H59.3648V45.8824H64.8226C64.9662 45.8824 65.1098 45.9302 65.2056 46.0258C65.3013 46.1214 65.3492 46.217 65.3492 46.4081C65.3492 46.5515 65.3492 46.6471 65.3013 46.7427C65.2535 46.8383 65.2535 46.8861 65.2056 46.9339H59.3648V46.8861Z" fill="#008556"/>
<path d="M70.6157 52.0001C71.2381 50.2795 71.9562 48.5589 72.6743 46.7905C73.3925 45.0699 74.1585 43.3015 75.0202 41.5332C75.2117 41.1508 75.4032 40.864 75.5947 40.7207C75.7862 40.5773 76.0256 40.4817 76.3128 40.4817C76.5043 40.4817 76.6958 40.5295 76.8395 40.5773C76.9831 40.6251 77.0788 40.6729 77.0788 40.7207C77.2703 41.0552 77.5097 41.5332 77.797 42.1545C78.0842 42.7758 78.3715 43.4449 78.7066 44.2096C79.0417 44.9743 79.3768 45.739 79.712 46.5515C80.0471 47.364 80.3822 48.1288 80.6695 48.8935C80.9567 49.6104 81.1961 50.2795 81.4355 50.8052C81.6748 51.3788 81.8185 51.7611 81.9142 52.0001H80.6216C80.5737 51.9045 80.478 51.6655 80.3822 51.3788C80.2865 51.092 80.1428 50.7574 79.9992 50.3751C79.8556 49.9927 79.712 49.6582 79.6162 49.3236C79.4726 48.989 79.3768 48.7501 79.2811 48.5589H73.0573C72.7701 49.3236 72.4828 49.9927 72.2435 50.614C72.0041 51.2354 71.8126 51.7133 71.7168 52.0001H70.6157ZM76.2171 41.4854C75.7383 42.3935 75.3075 43.3971 74.8287 44.4486C74.35 45.5001 73.8712 46.5515 73.4403 47.6508H78.8981C78.7066 47.1729 78.4672 46.5993 78.2278 45.978C77.9885 45.3567 77.7491 44.7832 77.4618 44.2096C77.2225 43.6361 76.9831 43.1104 76.7437 42.6324C76.5043 42.0589 76.3607 41.7243 76.2171 41.4854Z" fill="#008556"/>
<path d="M95.7497 52V46.647H88.5206V52H87.3716V41.3897C87.3716 41.1985 87.4195 41.0551 87.5152 40.9595C87.611 40.864 87.7546 40.8162 87.994 40.8162C88.0897 40.8162 88.1855 40.8162 88.2812 40.864C88.377 40.9117 88.4248 40.9117 88.5206 40.9595V45.739H95.7497V41.4375C95.7497 41.2463 95.7976 41.1029 95.8933 41.0073C95.9891 40.9118 96.1327 40.864 96.3242 40.864C96.4678 40.864 96.5636 40.864 96.6593 40.9117C96.7551 40.9595 96.8029 40.9595 96.8987 41.0073V52.0956H95.7497V52Z" fill="#008556"/>
</g>
<defs>
<clipPath id="clip0">
<rect width="98" height="52" fill="white"/>
</clipPath>
</defs>
</svg>
