<svg width="37" height="37" viewBox="0 0 37 37" fill="none" xmlns="http://www.w3.org/2000/svg">
<g clip-path="url(#clip0)">
<path d="M37 18.5371C37.0126 28.7601 28.7932 36.9992 18.5506 36.9992C8.19412 37.0118 0 28.8233 0 18.4486C0 8.27614 8.20677 0.100253 18.3483 -0.000839489C28.6162 -0.101932 37.1265 8.32669 37 18.5371ZM11.229 27.5723C11.5325 27.4585 11.8107 27.3701 12.0762 27.269C16.6791 25.424 20.1945 22.2649 23.0649 18.2843C23.3178 17.9305 23.2293 17.6904 22.9764 17.3998C20.8394 14.8851 18.3609 12.7874 15.4525 11.2331C14.15 10.5381 12.7591 10.0074 11.3554 9.38817C10.7738 10.8035 9.77478 11.3342 8.44703 11.3089C8.3838 11.5364 8.30793 11.7386 8.25735 11.9408C7.75154 13.8994 7.49863 15.8834 7.43541 17.9179C7.35953 20.5337 7.70096 23.0736 8.40909 25.5757C8.45967 25.7399 8.64935 25.9548 8.78845 25.9674C9.87594 26.0559 10.7105 26.536 11.229 27.5723ZM24.0513 16.6416C24.1777 16.4394 24.2915 16.313 24.3547 16.174C24.9238 14.8851 25.5687 13.6214 26.0239 12.3072C26.8459 9.93154 27.0988 7.48004 26.593 4.97799C26.3021 3.53741 25.6572 2.48857 24.1018 2.2232C24.026 2.21057 23.9501 2.16002 23.8616 2.13475C21.7119 1.46501 19.5116 1.03536 17.2734 1.40182C14.58 1.84411 12.6832 3.56269 11.1152 5.68564C10.6979 6.25428 10.3059 6.75975 11.0393 7.36631C11.1531 7.4674 11.1658 7.68222 11.2669 7.80859C11.406 7.9855 11.5704 8.21296 11.7601 8.27614C16.4262 9.75463 20.2703 12.4336 23.4949 16.0603C23.6719 16.2372 23.8363 16.4141 24.0513 16.6416ZM30.5003 26.5487C31.3602 25.8284 32.3718 25.0828 33.2444 24.2109C34.5848 22.8588 35.5837 21.2413 35.6849 19.2826C35.9631 14.0258 34.0663 9.61562 30.3107 5.98892C29.5393 5.24336 28.6541 4.61152 27.7437 3.8786C27.8828 5.07908 28.0851 6.11528 28.1104 7.16412C28.1989 10.4875 27.2505 13.5709 25.6446 16.4394C25.1008 17.4124 24.8479 18.1706 25.771 18.9794C25.7963 19.0046 25.809 19.0552 25.8342 19.0931C27.0482 21.0518 28.0219 23.1115 28.6036 25.3482C28.6415 25.4998 28.7679 25.6768 28.907 25.7526C29.3623 26.0053 29.8428 26.2201 30.5003 26.5487ZM11.9371 28.7095C12.1647 28.798 12.2532 28.8485 12.3544 28.8612C14.0362 29.1013 15.718 29.4298 17.3999 29.5562C20.068 29.7584 22.6856 29.3919 25.2652 28.6969C25.4422 28.6464 25.6699 28.3936 25.6825 28.2167C25.7584 27.2311 26.201 26.5234 27.0355 25.9927C27.1873 25.8916 27.3264 25.5757 27.2884 25.424C26.6688 23.1115 25.6066 21.0138 24.1904 19.0046C21.0038 23.3516 17.1217 26.7509 11.9371 28.7095ZM5.9812 8.84479C5.70301 8.8827 5.27307 8.98379 4.83049 8.99643C4.21087 9.0217 3.86945 9.35026 3.57861 9.88099C2.6555 11.5238 1.94737 13.255 1.5933 15.0999C1.25188 16.8817 1.02427 18.6761 1.54272 20.4705C2.32673 23.1873 4.23616 24.9691 6.5123 26.435C6.68934 26.5487 6.91695 26.5613 7.11928 26.6119C7.13192 26.3844 7.20779 26.1317 7.14457 25.9295C6.53759 23.7686 6.20882 21.5699 6.1203 19.3458C6.00649 16.591 6.41114 13.8994 7.10663 11.2331C7.15721 11.0562 7.16986 10.8161 7.08134 10.6645C6.76521 10.0705 6.38585 9.50189 5.9812 8.84479ZM10.622 30.5924C11.5578 32.0709 12.6958 33.3851 14.1753 34.3708C15.4019 35.1921 16.755 35.7102 18.2471 35.7355C20.46 35.7734 22.5718 35.2932 24.6835 34.6235C26.3274 34.1054 27.0735 33.006 27.4781 31.4643C27.5919 31.0094 27.5793 30.7188 27.0735 30.5671C26.8585 30.5039 26.6435 30.3397 26.5171 30.1628C26.2515 29.7963 25.9607 29.8216 25.5813 29.9227C21.0164 31.1484 16.4388 31.1863 11.8612 30.0238C11.2922 29.8848 10.8876 29.9227 10.622 30.5924ZM34.4457 25.0576C33.3329 25.9042 32.2327 26.713 31.1705 27.5596C31.0188 27.686 30.9176 27.964 30.905 28.1788C30.8671 29.1771 30.5509 30.0869 29.6278 30.466C28.6541 30.8704 28.8312 31.6665 28.6162 32.3615C31.2717 30.466 33.2064 28.0272 34.4457 25.0576ZM11.9498 2.56439C9.3069 3.67641 7.06869 5.31918 5.311 7.63168C5.80417 7.56849 6.36056 7.50531 6.6514 7.18939C7.27102 6.50702 7.95386 6.09001 8.88961 6.09001C9.07929 6.09001 9.33219 5.96364 9.446 5.82464C10.2932 4.76316 11.1152 3.67641 11.9498 2.56439ZM11.9877 34.4592C11.2037 33.4609 10.445 32.5384 9.73684 31.5907C9.50923 31.2874 9.31955 31.1484 8.92755 31.1737C8.00444 31.2495 7.19515 30.921 6.71463 30.1122C6.36056 29.5309 5.91798 29.6067 5.34894 29.632C7.22044 31.7929 9.39542 33.3851 11.9877 34.4592ZM2.5417 25.0576C2.81989 25.6262 3.13602 26.1696 3.35099 26.7382C3.76828 27.8376 4.56493 28.3178 5.70301 28.3178C5.7283 28.3178 5.74094 28.3304 5.76623 28.3304C5.93062 28.2799 6.08237 28.2294 6.24675 28.1788C6.17088 28.0145 6.14559 27.7871 6.03178 27.686C4.86842 26.7888 3.7177 25.9421 2.5417 25.0576Z" fill="#008654"/>
</g>
<defs>
<clipPath id="clip0">
<rect width="37" height="37" fill="white"/>
</clipPath>
</defs>
</svg>
