<svg width="30" height="31" viewBox="0 0 30 31" fill="none" xmlns="http://www.w3.org/2000/svg">
<path d="M26.501 30.6247H7.4853C6.1006 30.6247 4.97852 29.5002 4.97852 28.1125V21.7842C4.97852 21.521 5.19338 21.3057 5.456 21.3057H21.5233C21.8575 21.3057 22.144 21.0306 22.144 20.6837V12.7643C22.144 12.4293 21.8695 12.1422 21.5233 12.1422H5.456C5.19338 12.1422 4.97852 11.9269 4.97852 11.6637V2.51218C4.97852 1.1245 6.1006 0 7.4853 0H21.201C21.4636 0 21.6785 0.21533 21.6785 0.478511V6.57953C21.6785 6.99823 22.0246 7.34515 22.4424 7.34515H28.5303C28.7929 7.34515 29.0078 7.56048 29.0078 7.82366V28.1125C29.0078 29.5002 27.8738 30.6247 26.501 30.6247ZM5.93348 22.2747V28.1125C5.93348 28.9739 6.62583 29.6677 7.4853 29.6677H26.501C27.3605 29.6677 28.0528 28.9739 28.0528 28.1125V8.30217H22.4424C21.4994 8.30217 20.7235 7.53655 20.7235 6.57953V0.957023H7.4853C6.62583 0.957023 5.93348 1.65086 5.93348 2.51218V11.2091H21.5233C22.3947 11.2091 23.099 11.9149 23.099 12.7882V20.6956C23.099 21.5689 22.3947 22.2747 21.5233 22.2747H5.93348Z" fill="#008654"/>
<path d="M21.5225 22.2748H1.57569C0.70428 22.2748 0 21.569 0 20.6957V12.7764C0 11.9031 0.70428 11.1973 1.57569 11.1973H21.5225C22.3939 11.1973 23.0982 11.9031 23.0982 12.7764V20.6957C23.0982 21.569 22.382 22.2748 21.5225 22.2748ZM1.57569 12.1663C1.24145 12.1663 0.954965 12.4414 0.954965 12.7883V20.6957C0.954965 21.0426 1.22951 21.3178 1.57569 21.3178H21.5225C21.8568 21.3178 22.1432 21.0426 22.1432 20.6957V12.7764C22.1432 12.4414 21.8687 12.1543 21.5225 12.1543H1.57569V12.1663Z" fill="#008654"/>
<path d="M28.5297 8.30217H22.4299C21.4868 8.30217 20.7109 7.53655 20.7109 6.57953V0.478511C20.7109 0.287107 20.8303 0.107665 21.0094 0.0358884C21.1884 -0.0358884 21.3914 0 21.5346 0.143553L28.8401 7.46478C28.9475 7.54852 29.0072 7.68011 29.0072 7.83562C29.0072 8.08684 28.7923 8.30217 28.5297 8.30217ZM21.6778 1.6389V6.57953C21.6778 6.99823 22.024 7.34515 22.4418 7.34515H27.3837L21.6778 1.6389Z" fill="#008654"/>
<path d="M4.01027 19.7995C3.64022 19.7995 3.3418 19.5124 3.3418 19.1775C3.3418 18.8425 3.64022 18.5674 4.01027 18.5674C4.36838 18.5674 4.6668 18.8425 4.6668 19.1775C4.6668 19.5124 4.36838 19.7995 4.01027 19.7995Z" fill="#008654"/>
<path d="M7.10255 17.813V19.2724C7.10255 19.5476 6.85188 19.7988 6.54152 19.7988C6.24309 19.7988 5.98047 19.5595 5.98047 19.2724V14.6787C5.98047 14.3677 6.26697 14.1045 6.6012 14.1045H7.77103C9.26316 14.1045 9.80033 15.0017 9.80033 15.9707C9.80033 17.155 9.00054 17.813 7.77103 17.813H7.10255ZM7.10255 16.8081H7.78296C8.37981 16.8081 8.70212 16.5449 8.70212 15.9707C8.70212 15.552 8.535 15.1213 7.78296 15.1213H7.10255V16.8081Z" fill="#008654"/>
<path d="M12.4379 19.7272H11.5426C11.2084 19.7272 10.9219 19.4641 10.9219 19.153V14.667C10.9219 14.356 11.2084 14.0928 11.5426 14.0928H12.4379C14.2404 14.0928 14.8611 15.0857 14.8611 16.1863V17.562C14.8611 18.6984 14.2523 19.7272 12.4379 19.7272ZM13.751 16.1982C13.751 15.5881 13.4406 15.1096 12.5811 15.1096H12.044V18.7104H12.5811C13.4525 18.7104 13.751 18.196 13.751 17.562V16.1982Z" fill="#008654"/>
<path d="M17.1651 19.2963C17.1651 19.5715 16.9144 19.8107 16.604 19.8107C16.2936 19.8107 16.043 19.5715 16.043 19.2963V14.6667C16.043 14.3916 16.3056 14.1045 16.6518 14.1045H18.8124C19.1108 14.1045 19.3734 14.3437 19.3734 14.6189C19.3734 14.906 19.1228 15.1094 18.8124 15.1094H17.1531V16.4013H18.6572C18.9318 16.4013 19.2063 16.6167 19.2063 16.9038C19.2063 17.1909 18.9676 17.4182 18.6572 17.4182H17.1531V19.2963H17.1651Z" fill="#008654"/>
</svg>
