<svg width="15" height="15" viewBox="0 0 15 15" fill="none" xmlns="http://www.w3.org/2000/svg">
<path d="M14.0284 0.97275C12.7372 -0.321646 10.6374 -0.321646 9.3462 0.97275L0.761638 9.55411C0.694521 9.62123 0.652973 9.70752 0.640189 9.80021L0.00417687 14.5112C-0.0149994 14.6454 0.0329412 14.7796 0.125626 14.8723C0.205527 14.9522 0.317389 15.0002 0.42925 15.0002C0.448426 15.0002 0.467602 15.0002 0.486779 14.997L3.32486 14.6134C3.56137 14.5815 3.72756 14.3642 3.6956 14.1276C3.66364 13.8911 3.44631 13.7249 3.2098 13.7569L0.934224 14.0637L1.37847 10.7782L4.83659 14.2363C4.91649 14.3162 5.02835 14.3642 5.14021 14.3642C5.25207 14.3642 5.36393 14.3194 5.44383 14.2363L14.0284 5.65495C14.6548 5.02852 15 4.19755 15 3.31225C15 2.42695 14.6548 1.59598 14.0284 0.97275ZM9.51239 2.02744L10.9538 3.46886L3.12031 11.3023L1.6789 9.86093L9.51239 2.02744ZM5.14341 13.3222L3.73395 11.9128L11.5674 4.0793L12.9769 5.48875L5.14341 13.3222ZM13.5778 4.87192L10.1292 1.42339C10.5671 1.06224 11.1136 0.864085 11.6889 0.864085C12.3441 0.864085 12.9577 1.11977 13.4211 1.58C13.8846 2.04023 14.1371 2.65706 14.1371 3.31225C14.1371 3.89073 13.9389 4.43406 13.5778 4.87192Z" fill="#6B6B6B"/>
</svg>
