<svg width="30" height="31" viewBox="0 0 30 31" fill="none" xmlns="http://www.w3.org/2000/svg">
<path d="M26.501 30.6487H7.48529C6.1006 30.6487 4.97852 29.5242 4.97852 28.1365V21.8082C4.97852 21.545 5.19338 21.3297 5.456 21.3297H21.5233C21.8575 21.3297 22.144 21.0545 22.144 20.7076V12.7882C22.144 12.4533 21.8694 12.1662 21.5233 12.1662H5.456C5.19338 12.1662 4.97852 11.9508 4.97852 11.6876V2.51219C4.97852 1.1245 6.1006 0 7.48529 0H21.201C21.4636 0 21.6784 0.21533 21.6784 0.478512V6.57953C21.6784 6.99823 22.0246 7.34515 22.4424 7.34515H28.5303C28.7929 7.34515 29.0078 7.56048 29.0078 7.82366V28.1125C29.0078 29.5242 27.8738 30.6487 26.501 30.6487ZM5.93348 22.2986V28.1484C5.93348 29.0098 6.62583 29.7036 7.48529 29.7036H26.501C27.3605 29.7036 28.0528 29.0098 28.0528 28.1484V8.3261H22.4424C21.4994 8.3261 20.7235 7.56048 20.7235 6.60346V0.980946H7.48529C6.62583 0.980946 5.93348 1.67479 5.93348 2.53611V11.2331H21.5233C22.3947 11.2331 23.099 11.9389 23.099 12.8121V20.7315C23.099 21.6048 22.3947 22.3106 21.5233 22.3106H5.93348V22.2986Z" fill="#008654"/>
<path d="M21.5225 22.2982H1.57569C0.70428 22.2982 0 21.5924 0 20.7191V12.7998C0 11.9265 0.70428 11.2207 1.57569 11.2207H21.5225C22.3939 11.2207 23.0982 11.9265 23.0982 12.7998V20.7191C23.0982 21.5924 22.382 22.2982 21.5225 22.2982ZM1.57569 12.1897C1.24145 12.1897 0.954965 12.4648 0.954965 12.8118V20.7311C0.954965 21.078 1.22951 21.3532 1.57569 21.3532H21.5225C21.8568 21.3532 22.1432 21.078 22.1432 20.7311V12.8118C22.1432 12.4768 21.8687 12.1897 21.5225 12.1897H1.57569Z" fill="#008654"/>
<path d="M28.5297 8.32658H22.4299C21.4868 8.32658 20.7109 7.56096 20.7109 6.60394V0.502923C20.7109 0.311519 20.8303 0.132079 21.0094 0.0603026C21.1884 -0.0114741 21.3914 0.0244135 21.5346 0.167967L28.8401 7.48919C28.9475 7.57293 29.0072 7.70452 29.0072 7.86003C29.0072 8.11125 28.7923 8.32658 28.5297 8.32658ZM21.6778 1.66331V6.6159C21.6778 7.0346 22.024 7.38152 22.4418 7.38152H27.3838L21.6778 1.66331Z" fill="#008654"/>
<path d="M4.01026 19.8347C3.64022 19.8347 3.3418 19.5476 3.3418 19.2126C3.3418 18.8777 3.64022 18.6025 4.01026 18.6025C4.36837 18.6025 4.66679 18.8777 4.66679 19.2126C4.66679 19.5476 4.36837 19.8347 4.01026 19.8347Z" fill="#008654"/>
<path d="M7.10256 17.8481V19.3076C7.10256 19.5827 6.85188 19.8339 6.54152 19.8339C6.24309 19.8339 5.98047 19.5947 5.98047 19.3076V14.7139C5.98047 14.4028 6.26697 14.1396 6.60121 14.1396H7.77103C9.26317 14.1396 9.80034 15.0369 9.80034 16.0058C9.80034 17.1902 9.00055 17.8481 7.77103 17.8481H7.10256V17.8481ZM7.10256 16.8313H7.78297C8.37982 16.8313 8.70213 16.5681 8.70213 15.9939C8.70213 15.5752 8.535 15.1445 7.78297 15.1445H7.10256V16.8313Z" fill="#008654"/>
<path d="M13.8823 19.5466L12.032 16.3286V19.3073C12.032 19.5825 11.7694 19.8217 11.471 19.8217C11.1606 19.8217 10.9219 19.5825 10.9219 19.3073V14.594C10.9219 14.283 11.1726 14.0557 11.5068 14.0557C11.7217 14.0557 11.9365 14.1753 12.044 14.3547C12.7483 15.5869 13.1541 16.3047 13.8942 17.5966V14.582C13.8942 14.3069 14.1568 14.0676 14.4553 14.0676C14.7656 14.0676 15.0044 14.3069 15.0044 14.582V19.2954C15.0044 19.5944 14.7656 19.8337 14.4195 19.8337C14.2046 19.8337 13.9897 19.7141 13.8823 19.5466Z" fill="#008654"/>
<path d="M17.3094 17.7285C17.3094 18.4104 17.5481 18.841 18.2643 18.841C18.5389 18.841 18.7418 18.7692 18.9209 18.6735V17.4294H18.5031C18.2405 17.4294 18.0017 17.2021 18.0017 16.927C18.0017 16.6518 18.2405 16.4245 18.5031 16.4245H19.3745C19.7445 16.4245 20.031 16.604 20.031 16.9868V18.7453C20.031 19.499 19.0402 19.81 18.2285 19.81C16.8319 19.81 16.1992 18.9846 16.1992 17.7165V16.1374C16.1992 14.8813 16.8319 14.0439 18.2285 14.0439C19.0761 14.0439 19.8758 14.4387 19.8758 14.8933C19.8758 15.1445 19.649 15.3718 19.3506 15.3718C19.1716 15.3718 19.1119 15.312 19.0044 15.2522L18.9209 15.2043C18.718 15.0847 18.515 15.0129 18.2643 15.0129C17.5481 15.0129 17.3094 15.4436 17.3094 16.1255V17.7285V17.7285Z" fill="#008654"/>
</svg>
