<svg width="30" height="31" viewBox="0 0 30 31" fill="none" xmlns="http://www.w3.org/2000/svg">
<path d="M26.5012 30.6487H7.47358C6.08888 30.6487 4.9668 29.5242 4.9668 28.1365V21.8082C4.9668 21.545 5.18166 21.3296 5.44428 21.3296H21.5115C21.8458 21.3296 22.1323 21.0545 22.1323 20.7076V12.7882C22.1323 12.4533 21.8577 12.1662 21.5115 12.1662H5.45622C5.1936 12.1662 4.97873 11.9508 4.97873 11.6876V2.51219C4.97873 1.1245 6.10082 0 7.48551 0H21.2012C21.4638 0 21.6787 0.21533 21.6787 0.478511V6.57953C21.6787 6.99823 22.0248 7.34515 22.4426 7.34515H28.5305C28.7931 7.34515 29.008 7.56048 29.008 7.82367V28.1125C29.008 29.5242 27.874 30.6487 26.5012 30.6487ZM5.9337 22.2867V28.1365C5.9337 28.9978 6.62605 29.6916 7.48551 29.6916H26.5012C27.3607 29.6916 28.053 28.9978 28.053 28.1365V8.3261H22.4426C21.4996 8.3261 20.7237 7.56048 20.7237 6.60346V0.98095H7.47358C6.61411 0.98095 5.92176 1.67479 5.92176 2.53611V11.2331H21.5115C22.383 11.2331 23.0872 11.9389 23.0872 12.8121V20.7315C23.0872 21.6048 22.383 22.3106 21.5115 22.3106H5.9337V22.2867Z" fill="#008654"/>
<path d="M21.5225 22.2865H1.57569C0.704288 22.2865 0 21.5807 0 20.7074V12.7881C0 11.9148 0.704288 11.209 1.57569 11.209H21.5225C22.3939 11.209 23.0982 11.9148 23.0982 12.7881V20.7074C23.0982 21.5807 22.382 22.2865 21.5225 22.2865ZM1.57569 12.178C1.24145 12.178 0.954964 12.4531 0.954964 12.8V20.7194C0.954964 21.0663 1.22952 21.3415 1.57569 21.3415H21.5225C21.8567 21.3415 22.1432 21.0663 22.1432 20.7194V12.8C22.1432 12.4651 21.8687 12.178 21.5225 12.178H1.57569Z" fill="#008654"/>
<path d="M28.5297 8.32659H22.4299C21.4868 8.32659 20.7109 7.56097 20.7109 6.60395V0.502926C20.7109 0.311522 20.8303 0.132078 21.0094 0.0603017C21.1884 -0.0114751 21.3914 0.0244162 21.5346 0.16797L28.8401 7.48919C28.9475 7.57293 29.0072 7.70453 29.0072 7.86004C29.0072 8.11126 28.7923 8.32659 28.5297 8.32659ZM21.6778 1.65135V6.60395C21.6778 7.02265 22.024 7.36956 22.4418 7.36956H27.3838L21.6778 1.65135Z" fill="#008654"/>
<path d="M5.44387 19.822C5.07382 19.822 4.77539 19.5349 4.77539 19.1999C4.77539 18.865 5.07382 18.5898 5.44387 18.5898C5.80198 18.5898 6.1004 18.865 6.1004 19.1999C6.1004 19.5349 5.80198 19.822 5.44387 19.822Z" fill="#008654"/>
<path d="M10.3749 19.7512H7.64133C7.31904 19.7512 7.06836 19.4999 7.06836 19.2128C7.06836 19.1052 7.13998 18.9377 7.17579 18.8659C7.9517 17.5739 8.64404 16.4734 9.43189 15.1694H7.6294C7.31903 15.1694 7.08029 14.9421 7.08029 14.655C7.08029 14.3799 7.31903 14.1406 7.6294 14.1406H10.3272C10.6614 14.1406 10.9121 14.3799 10.9121 14.679C10.9121 14.8225 10.8524 14.9302 10.8046 15.0259L8.53661 18.7463H10.3749C10.6733 18.7463 10.936 18.9736 10.936 19.2607C10.924 19.5239 10.6733 19.7512 10.3749 19.7512Z" fill="#008654"/>
<path d="M12.0098 14.571C12.0098 14.2959 12.2604 14.0566 12.5708 14.0566C12.8692 14.0566 13.1319 14.2959 13.1319 14.571V19.3203C13.1319 19.5954 12.8812 19.8347 12.5708 19.8347C12.2604 19.8347 12.0098 19.5954 12.0098 19.3203V14.571Z" fill="#008654"/>
<path d="M15.6494 17.8374V19.2968C15.6494 19.572 15.3987 19.8232 15.0884 19.8232C14.79 19.8232 14.5273 19.5839 14.5273 19.2968V14.7031C14.5273 14.3921 14.8138 14.1289 15.1481 14.1289H16.3179C17.81 14.1289 18.3472 15.0261 18.3472 15.9951C18.3472 17.1794 17.5474 17.8374 16.3179 17.8374H15.6494V17.8374ZM15.6494 16.8205H16.3298C16.9267 16.8205 17.249 16.5574 17.249 15.9831C17.249 15.5644 17.0819 15.1338 16.3298 15.1338H15.6494V16.8205Z" fill="#008654"/>
</svg>
