<svg width="21" height="21" viewBox="0 0 21 21" fill="none" xmlns="http://www.w3.org/2000/svg">
<path d="M20.7066 3.25398L16.1157 0.118252C16 0.0407767 15.8678 0 15.7273 0H1.71488C0.768595 0 0 0.758447 0 1.69223V19.3078C0 20.2416 0.768595 21 1.71488 21H19.2851C20.2314 21 21 20.2416 21 19.3078V3.80854C21 3.58427 20.8884 3.38039 20.7066 3.25398ZM5.39669 12.6734C5.39669 12.3023 5.70248 12.0047 6.07438 12.0047H14.9215C15.2975 12.0047 15.5992 12.3064 15.5992 12.6734V14.6674H5.39256V12.6734H5.39669ZM13 4.3101C13 4.63223 12.7355 4.8932 12.4091 4.8932H6.07851C5.75207 4.8932 5.4876 4.63223 5.4876 4.3101V1.34563H12.9959V4.3101H13ZM14.9256 10.655H6.07438C4.94628 10.655 4.03306 11.5602 4.03306 12.6693V19.6544H1.71488C1.52066 19.6544 1.36364 19.4994 1.36364 19.3078V1.69223C1.36364 1.50058 1.52066 1.34563 1.71488 1.34563H4.1281V4.3101C4.1281 5.37437 5.00413 6.23883 6.08264 6.23883H12.4132C13.4917 6.23883 14.3678 5.37437 14.3678 4.3101V1.34563H15.5207L19.6405 4.15922V19.3078C19.6405 19.4994 19.4835 19.6544 19.2893 19.6544H16.9711V12.6734C16.9669 11.5602 16.0496 10.655 14.9256 10.655ZM15.6033 16.0089V19.6544H5.39669V16.0089H15.6033Z" fill="#6B6B6B"/>
</svg>
