<svg width="41" height="41" viewBox="0 0 41 41" fill="none" xmlns="http://www.w3.org/2000/svg">
<path d="M34.274 31.7732V25.7905C34.274 23.4728 32.3885 21.5874 30.0709 21.5874H30.0034C27.6858 21.5874 25.8003 23.4729 25.8003 25.7905V34.3368C25.8003 37.0656 23.5801 39.2856 20.8513 39.2856H20.734C18.0052 39.2856 15.785 37.0656 15.785 34.3368V23.2642C20.854 22.8282 24.8459 18.5636 24.8459 13.3836V5.37356C25.9468 5.01232 26.7442 3.97555 26.7442 2.75547C26.7442 1.23619 25.5082 0.000114283 23.9888 0.000114283C22.4694 0.000114283 21.2335 1.23619 21.2335 2.75547C21.2335 3.97555 22.0309 5.01232 23.1317 5.37356V13.3837C23.1317 17.9073 19.4514 21.5875 14.9279 21.5875H14.7448C10.2213 21.5875 6.54118 17.9073 6.54118 13.3837V5.37356C7.64206 5.01232 8.43941 3.97555 8.43941 2.75547C8.43953 1.23608 7.20345 0 5.68406 0C4.16468 0 2.92871 1.23608 2.92871 2.75535C2.92871 3.97543 3.72617 5.0122 4.82694 5.37345V13.3836C4.82694 18.6258 8.91529 22.9304 14.0708 23.2782V34.3368C14.0708 38.0108 17.0599 40.9999 20.734 40.9999H20.8513C24.5254 40.9999 27.5145 38.0108 27.5145 34.3368V25.7905C27.5145 24.4181 28.6311 23.3016 30.0034 23.3016H30.0709C31.4433 23.3016 32.5598 24.4182 32.5598 25.7905V31.7732C30.402 32.1767 28.7633 34.0732 28.7633 36.3463C28.7633 38.9123 30.8509 40.9999 33.4169 40.9999C35.9829 40.9999 38.0706 38.9123 38.0706 36.3463C38.0706 34.0732 36.4319 32.1768 34.274 31.7732ZM23.9888 1.71424C24.5628 1.71424 25.0299 2.18131 25.0299 2.75535C25.0299 3.32939 24.5628 3.79647 23.9888 3.79647C23.4148 3.79647 22.9477 3.32951 22.9477 2.75535C22.9477 2.1812 23.4148 1.71424 23.9888 1.71424ZM5.68406 1.71424C6.2581 1.71424 6.72518 2.18131 6.72518 2.75535C6.72518 3.32939 6.2581 3.79647 5.68406 3.79647C5.11002 3.79647 4.64295 3.32951 4.64295 2.75535C4.64295 2.1812 5.11002 1.71424 5.68406 1.71424ZM33.4169 39.2858C31.7961 39.2858 30.4775 37.9672 30.4775 36.3464C30.4775 34.7257 31.7961 33.4071 33.4169 33.4071C35.0378 33.4071 36.3563 34.7257 36.3563 36.3464C36.3563 37.9672 35.0378 39.2858 33.4169 39.2858Z" fill="#008654"/>
</svg>
