<svg width="22" height="18" viewBox="0 0 22 18" fill="none" xmlns="http://www.w3.org/2000/svg">
<path d="M22 2.17928C21.1902 2.53807 20.3214 2.7814 19.4086 2.89003C20.3407 2.33188 21.0541 1.44656 21.3923 0.394869C20.518 0.911761 19.5529 1.28709 18.5246 1.49056C17.7011 0.612101 16.5298 0.0649414 15.2307 0.0649414C12.7383 0.0649414 10.7174 2.08581 10.7174 4.57684C10.7174 4.93014 10.7573 5.2752 10.8343 5.60516C7.084 5.4168 3.75851 3.62002 1.53281 0.889761C1.14375 1.55515 0.922418 2.33047 0.922418 3.1581C0.922418 4.72394 1.71977 6.10556 2.92956 6.91388C2.18993 6.88914 1.49431 6.68568 0.88532 6.34749V6.40385C0.88532 8.58969 2.44153 10.414 4.505 10.8292C4.12694 10.9309 3.72828 10.9873 3.31585 10.9873C3.02442 10.9873 2.74259 10.9584 2.46626 10.9034C3.04089 12.6974 4.7071 14.002 6.68124 14.0378C5.13739 15.2476 3.19075 15.9666 1.07642 15.9666C0.712124 15.9666 0.353294 15.9446 0 15.9047C1.99751 17.1874 4.36894 17.9352 6.91771 17.9352C15.2198 17.9352 19.7578 11.0588 19.7578 5.09514L19.7427 4.51088C20.6293 3.87845 21.3964 3.08387 22 2.17928Z" fill="#008654"/>
</svg>
