<svg width="30" height="31" viewBox="0 0 30 31" fill="none" xmlns="http://www.w3.org/2000/svg">
<path d="M26.5012 30.6487H7.47358C6.08888 30.6487 4.9668 29.5242 4.9668 28.1365V21.8082C4.9668 21.545 5.18166 21.3297 5.44428 21.3297H21.5116C21.8458 21.3297 22.1323 21.0545 22.1323 20.7076V12.7882C22.1323 12.4533 21.8577 12.1662 21.5116 12.1662H5.45622C5.19361 12.1662 4.97874 11.9508 4.97874 11.6876V2.51219C4.97874 1.1245 6.10082 0 7.48552 0H21.2012C21.4638 0 21.6787 0.21533 21.6787 0.478512V6.57953C21.6787 6.99823 22.0248 7.34515 22.4426 7.34515H28.5305C28.7932 7.34515 29.008 7.56048 29.008 7.82366V28.1125C28.9961 29.5242 27.874 30.6487 26.5012 30.6487ZM5.9337 22.2986V28.1484C5.9337 29.0098 6.62605 29.7036 7.48552 29.7036H26.5012C27.3607 29.7036 28.0531 29.0098 28.0531 28.1484V8.3261H22.4426C21.4996 8.3261 20.7237 7.56048 20.7237 6.60346V0.980946H7.47358C6.61411 0.980946 5.92176 1.67479 5.92176 2.53611V11.2331H21.5116C22.383 11.2331 23.0872 11.9389 23.0872 12.8121V20.7315C23.0872 21.6048 22.383 22.3106 21.5116 22.3106H5.9337V22.2986Z" fill="#008654"/>
<path d="M21.5225 22.2982H1.57569C0.704287 22.2982 0 21.5924 0 20.7191V12.7998C0 11.9265 0.704287 11.2207 1.57569 11.2207H21.5225C22.3939 11.2207 23.0982 11.9265 23.0982 12.7998V20.7191C23.0862 21.5924 22.382 22.2982 21.5225 22.2982ZM1.57569 12.1897C1.24145 12.1897 0.954963 12.4648 0.954963 12.8118V20.7311C0.954963 21.078 1.22952 21.3532 1.57569 21.3532H21.5225C21.8567 21.3532 22.1432 21.078 22.1432 20.7311V12.8118C22.1432 12.4768 21.8687 12.1897 21.5225 12.1897H1.57569Z" fill="#008654"/>
<path d="M28.5297 8.32658H22.4299C21.4868 8.32658 20.7109 7.56096 20.7109 6.60394V0.502923C20.7109 0.311519 20.8303 0.132079 21.0094 0.0603026C21.1884 -0.0114741 21.3914 0.0244135 21.5346 0.167967L28.8401 7.48919C28.9475 7.57293 29.0072 7.70452 29.0072 7.86003C29.0072 8.11125 28.7923 8.32658 28.5297 8.32658ZM21.6778 1.66331V6.6159C21.6778 7.0346 22.024 7.38152 22.4418 7.38152H27.3837L21.6778 1.66331Z" fill="#008654"/>
<path d="M4.01027 19.8337C3.64022 19.8337 3.3418 19.5466 3.3418 19.2117C3.3418 18.8767 3.64022 18.6016 4.01027 18.6016C4.36838 18.6016 4.6668 18.8767 4.6668 19.2117C4.6668 19.5466 4.36838 19.8337 4.01027 19.8337Z" fill="#008654"/>
<path d="M7.00622 15.1448H6.15869C5.83639 15.1448 5.59766 14.9175 5.59766 14.6423C5.59766 14.415 5.84833 14.1279 6.15869 14.1279H8.96389C9.25038 14.1279 9.52494 14.3552 9.52494 14.6423C9.52494 14.9175 9.26232 15.1448 8.96389 15.1448H8.11637V19.3198C8.11637 19.5949 7.86569 19.8342 7.55532 19.8342C7.24496 19.8342 6.99428 19.5949 6.99428 19.3198V15.1448H7.00622Z" fill="#008654"/>
<path d="M11.3864 19.5114C11.3028 19.643 11.1596 19.8344 10.8731 19.8344C10.5866 19.8344 10.3359 19.5832 10.3359 19.32C10.3359 19.2363 10.3718 19.1167 10.4195 19.0449L11.7923 16.8437L10.5269 14.8459C10.4911 14.7622 10.4672 14.6665 10.4672 14.5708C10.4672 14.3196 10.7179 14.0684 11.0044 14.0684C11.2551 14.0684 11.4461 14.2478 11.5535 14.4392L12.4488 15.9226L13.3441 14.4392C13.4515 14.2837 13.6186 14.0684 13.9051 14.0684C14.1797 14.0684 14.4303 14.2957 14.4303 14.5828C14.4303 14.6665 14.3945 14.7622 14.3587 14.8459L13.1053 16.8437L14.4781 19.0449C14.5139 19.1047 14.5617 19.2243 14.5617 19.32C14.5617 19.5832 14.299 19.8344 14.0245 19.8344C13.7499 19.8344 13.6067 19.6669 13.5112 19.5114L12.4488 17.7529L11.3864 19.5114Z" fill="#008654"/>
<path d="M16.7699 15.1448H15.9224C15.6001 15.1448 15.3613 14.9175 15.3613 14.6423C15.3613 14.415 15.612 14.1279 15.9224 14.1279H18.7276C19.0141 14.1279 19.2886 14.3552 19.2886 14.6423C19.2886 14.9175 19.026 15.1448 18.7276 15.1448H17.88V19.3198C17.88 19.5949 17.6294 19.8342 17.319 19.8342C17.0086 19.8342 16.758 19.5949 16.758 19.3198V15.1448H16.7699Z" fill="#008654"/>
</svg>
