<svg width="30" height="31" viewBox="0 0 30 31" fill="none" xmlns="http://www.w3.org/2000/svg">
<path d="M26.5012 30.6247H7.47358C6.08888 30.6247 4.9668 29.5002 4.9668 28.1125V21.7842C4.9668 21.521 5.18166 21.3057 5.44428 21.3057H21.5115C21.8458 21.3057 22.1323 21.0306 22.1323 20.6837V12.7643C22.1323 12.4293 21.8577 12.1422 21.5115 12.1422H5.45622C5.1936 12.1422 4.97873 11.9269 4.97873 11.6637V2.51218C4.97873 1.1245 6.10082 0 7.48551 0H21.2012C21.4638 0 21.6787 0.21533 21.6787 0.478511V6.57953C21.6787 6.99823 22.0248 7.34515 22.4426 7.34515H28.5305C28.7931 7.34515 29.008 7.56048 29.008 7.82366V28.1125C28.9961 29.5002 27.874 30.6247 26.5012 30.6247ZM5.9337 22.2747V28.1125C5.9337 28.9739 6.62605 29.6677 7.48551 29.6677H26.5012C27.3607 29.6677 28.0531 28.9739 28.0531 28.1125V8.30217H22.4426C21.4996 8.30217 20.7237 7.53655 20.7237 6.57953V0.957023H7.47358C6.61411 0.957023 5.92176 1.65086 5.92176 2.51218V11.2091H21.5115C22.383 11.2091 23.0872 11.9149 23.0872 12.7882V20.6956C23.0872 21.5689 22.383 22.2747 21.5115 22.2747H5.9337Z" fill="#008654"/>
<path d="M21.5225 22.2748H1.57569C0.704286 22.2748 0 21.569 0 20.6957V12.7764C0 11.9031 0.704286 11.1973 1.57569 11.1973H21.5225C22.3939 11.1973 23.0982 11.9031 23.0982 12.7764V20.6957C23.0863 21.569 22.382 22.2748 21.5225 22.2748ZM1.57569 12.1663C1.24145 12.1663 0.954964 12.4414 0.954964 12.7883V20.6957C0.954964 21.0426 1.22952 21.3178 1.57569 21.3178H21.5225C21.8567 21.3178 22.1432 21.0426 22.1432 20.6957V12.7764C22.1432 12.4414 21.8687 12.1543 21.5225 12.1543H1.57569V12.1663Z" fill="#008654"/>
<path d="M28.5297 8.30217H22.4299C21.4868 8.30217 20.7109 7.53655 20.7109 6.57953V0.478511C20.7109 0.287107 20.8303 0.107665 21.0094 0.0358884C21.1884 -0.0358884 21.3913 0 21.5346 0.143553L28.8401 7.46478C28.9475 7.54852 29.0072 7.68011 29.0072 7.83562C29.0072 8.08684 28.7923 8.30217 28.5297 8.30217ZM21.6778 1.6389V6.57953C21.6778 6.99823 22.024 7.34515 22.4418 7.34515H27.3837L21.6778 1.6389Z" fill="#008654"/>
<path d="M4.01027 19.7986C3.64022 19.7986 3.3418 19.5115 3.3418 19.1765C3.3418 18.8415 3.64022 18.5664 4.01027 18.5664C4.36838 18.5664 4.66681 18.8415 4.66681 19.1765C4.66681 19.5115 4.36838 19.7986 4.01027 19.7986Z" fill="#008654"/>
<path d="M7.50819 19.7272H6.61291C6.27868 19.7272 5.99219 19.4641 5.99219 19.153V14.667C5.99219 14.356 6.27868 14.0928 6.61291 14.0928H7.50819C9.31069 14.0928 9.93141 15.0857 9.93141 16.1863V17.562C9.91948 18.6984 9.31069 19.7272 7.50819 19.7272ZM8.80933 16.1982C8.80933 15.5881 8.49897 15.1096 7.6395 15.1096H7.10233V18.7104H7.6395C8.51091 18.7104 8.80933 18.196 8.80933 17.562V16.1982Z" fill="#008654"/>
<path d="M10.9707 17.7048V16.1257C10.9707 14.9892 11.5556 14.0322 13.0358 14.0322C14.5279 14.0322 15.1009 14.9892 15.1009 16.1257V17.7048C15.1009 18.8652 14.4086 19.7983 13.0358 19.7983C11.6631 19.7983 10.9707 18.8652 10.9707 17.7048ZM12.0808 16.1257V17.7048C12.0808 18.3388 12.3793 18.7934 13.0358 18.7934C13.6924 18.7934 13.9908 18.3508 13.9908 17.7048V16.1257C13.9908 15.4797 13.7401 15.0491 13.0358 15.0491C12.3435 15.0491 12.0808 15.4797 12.0808 16.1257Z" fill="#008654"/>
<path d="M17.3094 17.705C17.3094 18.3869 17.5481 18.8176 18.2643 18.8176C18.515 18.8176 18.7299 18.7578 18.9209 18.6262L19.0044 18.5783C19.1119 18.5185 19.1596 18.4587 19.3506 18.4587C19.649 18.4587 19.8758 18.686 19.8758 18.9372C19.8758 19.4038 19.076 19.7866 18.2285 19.7866C16.8319 19.7866 16.1992 18.9611 16.1992 17.6931V16.114C16.1992 14.8579 16.8319 14.0205 18.2285 14.0205C19.076 14.0205 19.8758 14.4153 19.8758 14.8699C19.8758 15.1211 19.649 15.3484 19.3506 15.3484C19.1715 15.3484 19.1119 15.2886 19.0044 15.2287L18.9209 15.1809C18.7179 15.0493 18.515 14.9895 18.2643 14.9895C17.5481 14.9895 17.3094 15.4202 17.3094 16.102V17.705Z" fill="#008654"/>
</svg>
