<svg width="30" height="31" viewBox="0 0 30 31" fill="none" xmlns="http://www.w3.org/2000/svg">
<path d="M26.5012 30.6487H7.47358C6.08888 30.6487 4.9668 29.5242 4.9668 28.1365V21.8082C4.9668 21.545 5.18166 21.3296 5.44428 21.3296H21.5116C21.8458 21.3296 22.1323 21.0545 22.1323 20.7076V12.7882C22.1323 12.4533 21.8577 12.1662 21.5116 12.1662H5.45622C5.19361 12.1662 4.97874 11.9508 4.97874 11.6876V2.51219C4.97874 1.1245 6.10082 0 7.48552 0H21.2012C21.4638 0 21.6787 0.21533 21.6787 0.478511V6.57953C21.6787 6.99823 22.0248 7.34515 22.4426 7.34515H28.5305C28.7932 7.34515 29.008 7.56048 29.008 7.82367V28.1125C28.9961 29.5242 27.874 30.6487 26.5012 30.6487ZM5.9337 22.2867V28.1365C5.9337 28.9978 6.62605 29.6916 7.48552 29.6916H26.5012C27.3607 29.6916 28.0531 28.9978 28.0531 28.1365V8.3261H22.4426C21.4996 8.3261 20.7237 7.56048 20.7237 6.60346V0.98095H7.47358C6.61411 0.98095 5.92176 1.67479 5.92176 2.53611V11.2331H21.5116C22.383 11.2331 23.0872 11.9389 23.0872 12.8121V20.7315C23.0872 21.6048 22.383 22.3106 21.5116 22.3106H5.9337V22.2867Z" fill="#008654"/>
<path d="M21.5225 22.2865H1.57569C0.704287 22.2865 0 21.5807 0 20.7074V12.7881C0 11.9148 0.704287 11.209 1.57569 11.209H21.5225C22.3939 11.209 23.0982 11.9148 23.0982 12.7881V20.7074C23.0862 21.5807 22.382 22.2865 21.5225 22.2865ZM1.57569 12.178C1.24145 12.178 0.954963 12.4531 0.954963 12.8V20.7194C0.954963 21.0663 1.22952 21.3415 1.57569 21.3415H21.5225C21.8567 21.3415 22.1432 21.0663 22.1432 20.7194V12.8C22.1432 12.4651 21.8687 12.178 21.5225 12.178H1.57569Z" fill="#008654"/>
<path d="M28.5297 8.32659H22.4299C21.4868 8.32659 20.7109 7.56097 20.7109 6.60395V0.502926C20.7109 0.311522 20.8303 0.132078 21.0094 0.0603017C21.1884 -0.0114751 21.3914 0.0244162 21.5346 0.16797L28.8401 7.48919C28.9475 7.57293 29.0072 7.70453 29.0072 7.86004C29.0072 8.11126 28.7923 8.32659 28.5297 8.32659ZM21.6778 1.65135V6.60395C21.6778 7.02265 22.024 7.36956 22.4418 7.36956H27.3837L21.6778 1.65135Z" fill="#008654"/>
<path d="M4.01027 19.822C3.64022 19.822 3.3418 19.5349 3.3418 19.1999C3.3418 18.865 3.64022 18.5898 4.01027 18.5898C4.36838 18.5898 4.6668 18.865 4.6668 19.1999C4.6668 19.5349 4.36838 19.822 4.01027 19.822Z" fill="#008654"/>
<path d="M8.83343 19.7512H6.72057C6.32664 19.7512 5.98047 19.6196 5.98047 19.1889V14.7029C5.98047 14.4277 6.24309 14.1406 6.58926 14.1406H8.74986C9.04829 14.1406 9.31091 14.3799 9.31091 14.655C9.31091 14.9421 9.06023 15.1455 8.74986 15.1455H7.09062V16.4255H8.59468C8.86924 16.4255 9.14379 16.6408 9.14379 16.928C9.14379 17.2151 8.90505 17.4423 8.59468 17.4423H7.09062V18.7463H8.83343C9.13185 18.7463 9.39447 18.9736 9.39447 19.2368C9.39447 19.5239 9.13185 19.7512 8.83343 19.7512Z" fill="#008654"/>
<path d="M11.3512 19.4997C11.2677 19.6313 11.1244 19.8227 10.838 19.8227C10.5515 19.8227 10.3008 19.5715 10.3008 19.3083C10.3008 19.2246 10.3366 19.1049 10.3843 19.0332L11.7571 16.832L10.4918 14.8342C10.456 14.7505 10.4321 14.6548 10.4321 14.5591C10.4321 14.3079 10.6828 14.0566 10.9693 14.0566C11.2199 14.0566 11.4109 14.2361 11.5184 14.4275L12.4136 15.9109L13.3089 14.4275C13.4164 14.272 13.5835 14.0566 13.87 14.0566C14.1445 14.0566 14.3952 14.2839 14.3952 14.571C14.3952 14.6548 14.3594 14.7505 14.3236 14.8342L13.0702 16.832L14.443 19.0332C14.4788 19.093 14.5265 19.2126 14.5265 19.3083C14.5265 19.5715 14.2639 19.8227 13.9893 19.8227C13.7148 19.8227 13.5715 19.6552 13.4761 19.4997L12.4136 17.7412L11.3512 19.4997Z" fill="#008654"/>
<path d="M18.3588 19.7512H16.246C15.852 19.7512 15.5059 19.6196 15.5059 19.1889V14.7029C15.5059 14.4277 15.7685 14.1406 16.1146 14.1406H18.2753C18.5737 14.1406 18.8363 14.3799 18.8363 14.655C18.8363 14.9421 18.5856 15.1455 18.2753 15.1455H16.616V16.4255H18.1201C18.3946 16.4255 18.6692 16.6408 18.6692 16.928C18.6692 17.2151 18.4304 17.4423 18.1201 17.4423H16.616V18.7463H18.3469C18.6453 18.7463 18.9079 18.9736 18.9079 19.2368C18.9199 19.5239 18.6692 19.7512 18.3588 19.7512Z" fill="#008654"/>
</svg>
